<?xml version="1.0" encoding="UTF-8"?>
<svg version="1.1" xmlns="http://www.w3.org/2000/svg" width="980" height="980">
<path d="M0 0 C323.4 0 646.8 0 980 0 C980 323.4 980 646.8 980 980 C656.6 980 333.2 980 0 980 C0 656.6 0 333.2 0 0 Z " fill="#FEFEFE" transform="translate(0,0)"/>
<path d="M0 0 C1.75957031 0.71929687 1.75957031 0.71929687 3.5546875 1.453125 C17.24463908 7.59963387 29.74947355 15.76101844 40.75390625 25.94140625 C42.5233312 27.56312268 44.30460539 29.07915863 46.1875 30.5625 C58.25174484 41.01817886 66.64843448 55.01933825 74 69 C74.34901367 69.6585498 74.69802734 70.31709961 75.05761719 70.99560547 C77.36119073 75.45242546 79.09164856 79.84687907 80.625 84.625 C81.02976562 85.87539063 81.43453125 87.12578125 81.8515625 88.4140625 C82.23054688 89.59742188 82.60953125 90.78078125 83 92 C83.51820313 93.45986328 83.51820313 93.45986328 84.046875 94.94921875 C94.01198144 126.84572747 88.77286581 167.284101 73.69140625 196.734375 C65.06068593 212.64643802 65.06068593 212.64643802 61 214 C60.62094693 215.32106308 60.29243459 216.65710354 60 218 C58.91186523 219.61230469 58.91186523 219.61230469 57.55859375 221.171875 C57.06190186 221.7496167 56.56520996 222.3273584 56.0534668 222.92260742 C55.52019775 223.52564697 54.98692871 224.12868652 54.4375 224.75 C53.61342651 225.69033081 53.61342651 225.69033081 52.77270508 226.6496582 C51.19151062 228.44204993 49.59801341 230.22260694 48 232 C47.32453125 232.76183594 46.6490625 233.52367187 45.953125 234.30859375 C39.80759009 240.84842183 32.29289618 245.83419854 25 251 C27.43727414 253.43727414 29.34777713 253.90455254 32.625 254.9375 C49.06747999 260.15767038 64.15842728 267.39284516 79.10131836 275.94604492 C80.73921831 276.85524051 82.41944473 277.68740405 84.10546875 278.50390625 C87.5283497 280.27308763 90.58770741 282.41738844 93.6875 284.6875 C94.29980469 285.13174316 94.91210938 285.57598633 95.54296875 286.03369141 C96.7841456 286.93451429 98.02423494 287.83683765 99.26318359 288.74072266 C100.78642844 289.84515011 102.32377507 290.93007389 103.86328125 292.01171875 C111.08759876 297.11690312 117.75433357 302.77297662 124.39892578 308.59863281 C125.83093187 309.85202027 127.27228285 311.09471244 128.71484375 312.3359375 C132.91776899 315.98639836 136.52580018 319.65725023 140 324 C141.6596669 325.67363716 143.32724845 327.33944052 145 329 C151.14266923 335.33402964 156.82433035 341.83617091 162.0625 348.9375 C162.52736816 349.56382324 162.99223633 350.19014648 163.47119141 350.83544922 C165.83829559 354.1085799 167.70084122 357.13188318 169 361 C168.49210937 361.46148438 167.98421875 361.92296875 167.4609375 362.3984375 C157.78000022 371.5717601 152.73806776 381.790685 151 395 C143 385.57142857 143 385.57142857 143 381 C142.34 381 141.68 381 141 381 C139.63323418 378.98356074 138.37204193 376.96401478 137.125 374.875 C132.54950867 367.48527849 127.20793277 361.04150167 121.41503906 354.58251953 C120.12446994 353.13920188 118.85406914 351.67791472 117.5859375 350.21484375 C112.43820754 344.33042451 106.87407781 339.14766514 101 334 C98.40610066 331.61883773 95.81340535 329.23648344 93.2265625 326.84765625 C91.20431179 325.16954294 89.39687145 324.04521107 87 323 C87 322.34 87 321.68 87 321 C86.01773438 320.67708984 86.01773438 320.67708984 85.015625 320.34765625 C80.91406672 318.51470598 77.43338911 315.99103698 73.75 313.4375 C61.49087598 305.11137578 48.78429467 298.44116895 35 293 C33.02044142 292.14674199 31.04128064 291.29256056 29.0625 290.4375 C18.65844402 286.12416856 7.84868922 283.32078687 -3.125 280.875 C-4.19492187 280.62363281 -5.26484375 280.37226562 -6.3671875 280.11328125 C-22.6468419 276.46373431 -39.11216765 275.55992559 -55.75 275.5625 C-56.62897949 275.56110016 -57.50795898 275.55970032 -58.41357422 275.55825806 C-81.14592894 275.58772403 -103.44359802 278.50797267 -125 286 C-126.38632413 286.4569282 -127.77305587 286.91262121 -129.16015625 287.3671875 C-161.70115664 298.22908735 -191.1388225 316.37100914 -216 340 C-216.82902832 340.78020508 -216.82902832 340.78020508 -217.67480469 341.57617188 C-227.58095513 350.95534279 -236.01448344 360.95376078 -244 372 C-244.67546875 372.91394531 -245.3509375 373.82789063 -246.046875 374.76953125 C-263.03012674 398.25783584 -274.45020542 425.13584547 -282 453 C-282.1753125 453.64638428 -282.350625 454.29276855 -282.53125 454.95874023 C-283.83530879 459.95331011 -284.75519453 464.95605706 -285.5 470.0625 C-285.69444702 471.3767395 -285.69444702 471.3767395 -285.89282227 472.7175293 C-286.68086463 478.46332417 -287.17982885 484.19471711 -287.49609375 489.984375 C-287.534534 490.67176254 -287.57297424 491.35915009 -287.61257935 492.06736755 C-287.79938442 495.49040181 -287.96142472 498.91242072 -288.08984375 502.33813477 C-288.48428908 510.41142404 -288.97957528 516.78645445 -294.7890625 522.875 C-300.16311337 526.16803543 -304.7526762 526.95386991 -311 526 C-316.46399114 524.0774846 -318.99502741 521.07190443 -322.09375 516.32421875 C-323.39262173 512.99306066 -323.29603522 509.77227439 -323.25 506.25 C-323.23658569 505.06361938 -323.23658569 505.06361938 -323.22290039 503.85327148 C-323.17410241 501.23410938 -323.09378647 498.617928 -323 496 C-322.9695459 495.1332666 -322.9390918 494.2665332 -322.90771484 493.37353516 C-321.47921512 460.17763298 -313.23692446 426.99544233 -299 397 C-298.66516602 396.29133789 -298.33033203 395.58267578 -297.98535156 394.85253906 C-294.10658714 386.74531851 -289.93561771 378.9260407 -285.11328125 371.33203125 C-283.61488334 368.96949259 -282.15817093 366.60329279 -280.73046875 364.19921875 C-269.67692572 345.74569108 -255.22539124 330.19497733 -240.125 315 C-239.1971167 314.06498657 -239.1971167 314.06498657 -238.25048828 313.11108398 C-228.10234725 303 -228.10234725 303 -225 303 C-225 302.34 -225 301.68 -225 301 C-222.66408237 299.05542441 -220.32169688 297.23387597 -217.875 295.4375 C-217.14796875 294.89955811 -216.4209375 294.36161621 -215.671875 293.80737305 C-193.17342658 277.31814653 -168.36968963 263.76457821 -141.75 255.3125 C-138.4516708 254.15808478 -136.65328769 253.1308483 -134 251 C-134.79664063 250.40832031 -135.59328125 249.81664062 -136.4140625 249.20703125 C-146.60755029 241.61534966 -155.56236987 234.02908823 -163.55078125 224.046875 C-165.13905237 222.07103533 -166.76002473 220.12087608 -168.41796875 218.203125 C-176.71139975 208.23518568 -181.76165704 196.7880001 -187 185 C-187.3005127 184.33693848 -187.60102539 183.67387695 -187.91064453 182.99072266 C-190.76937488 176.55992024 -192.37232141 169.81794686 -194 163 C-194.30421875 161.76765625 -194.6084375 160.5353125 -194.921875 159.265625 C-202.50423777 123.64282631 -194.41254972 85.52172918 -175 55 C-169.23623028 46.22574452 -162.20566627 38.58548301 -155 31 C-154.3915625 30.31550781 -153.783125 29.63101563 -153.15625 28.92578125 C-148.62941188 24.0182772 -143.37620895 20.16812498 -138 16.25 C-136.86002563 15.41674194 -136.86002563 15.41674194 -135.69702148 14.56665039 C-131.51400721 11.57955787 -127.34948859 9.02458989 -122.70654297 6.81835938 C-120.74181537 5.87618957 -118.91583511 4.76863348 -117.0625 3.625 C-82.49982532 -15.74923287 -35.75268187 -14.9502513 0 0 Z " fill="#030303" transform="translate(537,232)"/>
<path d="M0 0 C31.4957421 -0.90968628 58.75566635 8.44750395 82.15283203 29.81689453 C101.21052883 47.84702235 113.94921146 73.92376716 114.90673828 100.23486328 C114.94716344 102.82969489 114.96866629 105.42487691 114.97314453 108.02001953 C114.9757428 109.03591156 114.9757428 109.03591156 114.97839355 110.07232666 C114.94491545 139.99734564 102.09285096 166.48384056 81.04931641 187.63916016 C73.20499085 195.11910414 64.08471823 201.02177066 54.53564453 206.08251953 C53.30201172 206.75734375 53.30201172 206.75734375 52.04345703 207.44580078 C29.59922613 218.73783595 -1.13181162 220.97457216 -25.03515625 213.25195312 C-34.63298279 209.85356969 -44.10464823 205.97009544 -52.46435547 200.08251953 C-53.42728516 199.41349609 -53.42728516 199.41349609 -54.40966797 198.73095703 C-56.47486622 197.23431539 -58.46993635 195.67237677 -60.46435547 194.08251953 C-61.89134766 192.96876953 -61.89134766 192.96876953 -63.34716797 191.83251953 C-69.97916524 186.51362448 -75.39752571 180.93425523 -80.46435547 174.08251953 C-81.40601563 172.98617187 -81.40601563 172.98617187 -82.36669922 171.86767578 C-85.21788329 168.08202542 -87.3378596 164.02672751 -89.52685547 159.83251953 C-89.960625 159.02427734 -90.39439453 158.21603516 -90.84130859 157.38330078 C-93.63103626 152.07559974 -95.76976216 146.83005152 -97.46435547 141.08251953 C-97.8093811 139.95064209 -97.8093811 139.95064209 -98.16137695 138.79589844 C-106.78663178 109.50361711 -103.05631419 80.634359 -88.52441406 53.93652344 C-83.66013562 45.42907745 -77.15097149 38.18475702 -70.46435547 31.08251953 C-69.91392578 30.46763672 -69.36349609 29.85275391 -68.79638672 29.21923828 C-53.51782836 12.80893486 -28.58796479 1.46696988 -6.33544922 0.21142578 C-4.22362774 0.14110277 -2.11180841 0.07071441 0 0 Z " fill="#FDFDFD" transform="translate(476.46435546875,255.91748046875)"/>
<path d="M0 0 C4.75563833 2.42268368 9.56593665 6.13187329 12 11 C12.08949417 12.45037107 12.1175844 13.90478629 12.11352539 15.35791016 C12.11341209 16.70908432 12.11341209 16.70908432 12.11329651 18.08755493 C12.10813522 19.06155243 12.10297394 20.03554993 12.09765625 21.0390625 C12.0962413 22.03505463 12.09482635 23.03104675 12.09336853 24.05722046 C12.08775936 27.24651053 12.0752053 30.43573106 12.0625 33.625 C12.05748618 35.78385315 12.05292307 37.94270741 12.04882812 40.1015625 C12.03778695 45.4010655 12.02103988 50.70052778 12 56 C12.54599854 55.98667633 13.09199707 55.97335266 13.65454102 55.95962524 C19.36499341 55.82632894 25.07500022 55.73616174 30.78662109 55.67041016 C32.91473355 55.64033654 35.04272307 55.59946589 37.17041016 55.54736328 C40.23891604 55.47413268 43.3057762 55.44044901 46.375 55.4140625 C47.31802979 55.38309479 48.26105957 55.35212708 49.23266602 55.32022095 C56.15336405 55.31673737 60.02647769 57.21680878 65 62 C68.35954253 65.77948534 68.5680274 69.53358207 68.421875 74.4296875 C67.56673649 79.63969803 64.71039302 83.44052402 60.875 86.9375 C57.72746454 88.72110343 55.16346262 89.12367754 51.62036133 89.11352539 C50.73967484 89.11344986 49.85898834 89.11337433 48.95161438 89.11329651 C48.00465195 89.10813522 47.05768951 89.10297394 46.08203125 89.09765625 C45.10965012 89.0962413 44.13726898 89.09482635 43.13542175 89.09336853 C40.02774996 89.08776817 36.92015004 89.07521562 33.8125 89.0625 C31.70638125 89.05748505 29.60026137 89.05292213 27.49414062 89.04882812 C22.32939936 89.03779862 17.16471187 89.02053375 12 89 C12.02618408 90.29099609 12.05236816 91.58199219 12.0793457 92.91210938 C12.17023187 97.72768647 12.22738879 102.5431886 12.2746582 107.359375 C12.29971505 109.43893202 12.33377021 111.51840174 12.37719727 113.59765625 C12.43823845 116.59657394 12.46629842 119.59432178 12.48828125 122.59375 C12.51408768 123.51490601 12.5398941 124.43606201 12.56648254 125.38513184 C12.56924928 131.83435051 11.09240586 135.98572689 7 141 C2.37719498 145.21491046 -2.24827094 145.34888267 -8.2734375 145.27734375 C-12.14953489 144.88307023 -14.16140409 143.63089377 -17 141 C-20.6480313 136.26741886 -22.13173947 132.68358872 -22.11352539 126.78222656 C-22.11344986 125.96167786 -22.11337433 125.14112915 -22.11329651 124.29571533 C-22.10813522 123.41953552 -22.10297394 122.54335571 -22.09765625 121.640625 C-22.0962413 120.73624695 -22.09482635 119.8318689 -22.09336853 118.90008545 C-22.08777911 116.01668973 -22.07522853 113.13337218 -22.0625 110.25 C-22.05748363 108.29296987 -22.05292096 106.33593853 -22.04882812 104.37890625 C-22.03781313 99.58590747 -22.02055574 94.79296698 -22 90 C-23.90676514 90.0314209 -23.90676514 90.0314209 -25.85205078 90.06347656 C-30.58191603 90.13604256 -35.31173235 90.18186025 -40.04199219 90.21972656 C-42.0866728 90.2398042 -44.13129627 90.26707225 -46.17578125 90.30175781 C-49.11993537 90.35044519 -52.06332834 90.37300744 -55.0078125 90.390625 C-55.9174173 90.41127014 -56.82702209 90.43191528 -57.76419067 90.45318604 C-64.46304269 90.45553819 -67.79130567 89.11723511 -72.64453125 84.40234375 C-77.1398828 78.76436104 -77.78170488 74.04635384 -77 67 C-74.75887755 62.43155809 -71.50797029 58.48290607 -67 56 C-63.43894239 55.32798442 -59.96461282 55.41611024 -56.3515625 55.51171875 C-55.33903412 55.51879349 -54.32650574 55.52586823 -53.28329468 55.53315735 C-50.06309783 55.56104921 -46.84466744 55.62377992 -43.625 55.6875 C-41.4362231 55.71258951 -39.24741884 55.73540154 -37.05859375 55.75585938 C-31.70513088 55.8108584 -26.35269166 55.89443225 -21 56 C-21.00888245 55.44956024 -21.01776489 54.89912048 -21.0269165 54.33200073 C-21.11559291 48.58927828 -21.17581803 42.84675117 -21.21972656 37.10351562 C-21.23980888 34.96183366 -21.26708037 32.8202063 -21.30175781 30.67871094 C-21.35042398 27.59556585 -21.3730029 24.51314738 -21.390625 21.4296875 C-21.42159271 19.99965897 -21.42159271 19.99965897 -21.45318604 18.54074097 C-21.45555213 11.48859469 -19.66224193 7.98493792 -14.9375 2.6875 C-10.74596394 -0.96319269 -5.26520785 -0.59233588 0 0 Z " fill="#020202" transform="translate(739,613)"/>
<path d="M0 0 C0.33 0.99 0.66 1.98 1 3 C-0.3125 5.4375 -0.3125 5.4375 -2 8 C-2.33 8.7425 -2.66 9.485 -3 10.25 C-4 12 -4 12 -7 13 C-5.35821735 8.22390502 -2.73453298 4.20617096 0 0 Z " fill="#D5D5D5" transform="translate(393,302)"/>
<path d="M0 0 C1.14926266 0.95421808 2.29430541 1.91352045 3.4375 2.875 C4.07558594 3.40867187 4.71367188 3.94234375 5.37109375 4.4921875 C7 6 7 6 8 8 C5.6875 8.25 5.6875 8.25 3 8 C1.1875 6.25 1.1875 6.25 0 4 C0 2.68 0 1.36 0 0 Z " fill="#D8D8D8" transform="translate(648,575)"/>
<path d="M0 0 C0.66 0.33 1.32 0.66 2 1 C1 4 1 4 -0.77734375 5.203125 C-1.49019531 5.54859375 -2.20304687 5.8940625 -2.9375 6.25 C-4.00291016 6.78367187 -4.00291016 6.78367187 -5.08984375 7.328125 C-6.03537109 7.66070313 -6.03537109 7.66070313 -7 8 C-7.66 7.67 -8.32 7.34 -9 7 C-6.03 4.69 -3.06 2.38 0 0 Z " fill="#D6D6D6" transform="translate(350,547)"/>
<path d="M0 0 C0.33 0.66 0.66 1.32 1 2 C-0.13474948 5.40424844 -0.96811304 6.21653709 -4 8 C-4.99 7.67 -5.98 7.34 -7 7 C-4.66666667 4.66666667 -2.33333333 2.33333333 0 0 Z " fill="#191919" transform="translate(399,248)"/>
<path d="M0 0 C1.65 1.65 3.3 3.3 5 5 C4.34 6.32 3.68 7.64 3 9 C2.01 8.67 1.02 8.34 0 8 C0.185625 7.236875 0.37125 6.47375 0.5625 5.6875 C1.22819173 2.91032625 1.22819173 2.91032625 0 0 Z " fill="#282828" transform="translate(697,580)"/>
<path d="M0 0 C0.99 0.33 1.98 0.66 3 1 C0.63202009 3.61724095 -1.89600354 5.32861729 -5 7 C-5.66 7 -6.32 7 -7 7 C-7 6.34 -7 5.68 -7 5 C-5.03277992 3.61876037 -3.03131672 2.28511874 -1 1 C-0.67 0.67 -0.34 0.34 0 0 Z " fill="#E4E4E4" transform="translate(538,454)"/>
<path d="M0 0 C0.66 0.33 1.32 0.66 2 1 C2 1.99 2 2.98 2 4 C-2.625 6.125 -2.625 6.125 -6 5 C-4.02 3.35 -2.04 1.7 0 0 Z " fill="#292929" transform="translate(549,449)"/>
<path d="M0 0 C2.25 -0.25 2.25 -0.25 5 0 C7.3125 2 7.3125 2 9 4 C8.34 4.66 7.68 5.32 7 6 C5.83054208 5.19152271 4.66449539 4.37810888 3.5 3.5625 C2.8503125 3.11003906 2.200625 2.65757812 1.53125 2.19140625 C1.0259375 1.79824219 0.520625 1.40507812 0 1 C0 0.67 0 0.34 0 0 Z " fill="#D2D2D2" transform="translate(557,242)"/>
<path d="M0 0 C3.56311466 1.78155733 5.35645475 3.16763009 8 6 C7.34 6.66 6.68 7.32 6 8 C4.02 5.36 2.04 2.72 0 0 Z " fill="#EEEEEE" transform="translate(397,430)"/>
<path d="M0 0 C1.2077558 3.62326739 0.54311128 4.64146369 -1 8 C-2.32 7.67 -3.64 7.34 -5 7 C-3.35 4.69 -1.7 2.38 0 0 Z " fill="#2F2F2F" transform="translate(574,422)"/>
<path d="M0 0 C2.6855594 2.6855594 3.06049974 5.37621328 4 9 C2.35 8.01 0.7 7.02 -1 6 C-0.67 4.02 -0.34 2.04 0 0 Z " fill="#2F2F2F" transform="translate(613,307)"/>
<path d="M0 0 C0.33 0.66 0.66 1.32 1 2 C-0.98 4.31 -2.96 6.62 -5 9 C-5.66 8.67 -6.32 8.34 -7 8 C-4.69 5.36 -2.38 2.72 0 0 Z " fill="#C6C6C6" transform="translate(309,583)"/>
<path d="M0 0 C1.875 0.125 1.875 0.125 4 1 C5.25 4.0625 5.25 4.0625 6 7 C3.95880212 5.38405168 1.95927063 3.7143618 0 2 C0 1.34 0 0.68 0 0 Z " fill="#DFDFDF" transform="translate(660,538)"/>
<path d="M0 0 C0.99 0.33 1.98 0.66 3 1 C1.35 2.65 -0.3 4.3 -2 6 C-2.66 5.01 -3.32 4.02 -4 3 C-2.1875 1.4375 -2.1875 1.4375 0 0 Z " fill="#E8E8E8" transform="translate(545,449)"/>
<path d="M0 0 C0.66 0.33 1.32 0.66 2 1 C-1.32307692 4.93846154 -1.32307692 4.93846154 -4.75 5.25 C-5.4925 5.1675 -6.235 5.085 -7 5 C-2.25 1.125 -2.25 1.125 0 0 Z " fill="#DCDCDC" transform="translate(370,535)"/>
<path d="M0 0 C-2.17424117 2.50037734 -3.73045798 3.43628586 -7 4 C-6.625 2.0625 -6.625 2.0625 -6 0 C-3.50907189 -1.24546405 -2.58919267 -0.7767578 0 0 Z " fill="#DBDBDB" transform="translate(404,483)"/>
<path d="M0 0 C1.32 1.32 2.64 2.64 4 4 C3.34 5.32 2.68 6.64 2 8 C0.23537317 4.91190305 0 3.76687864 0 0 Z " fill="#262626" transform="translate(596,278)"/>
<path d="M0 0 C0.99 0.33 1.98 0.66 3 1 C1.35 2.65 -0.3 4.3 -2 6 C-2.33 5.01 -2.66 4.02 -3 3 C-2.01 2.01 -1.02 1.02 0 0 Z " fill="#171717" transform="translate(408,281)"/>
</svg>
