<?xml version="1.0" encoding="UTF-8"?>
<svg version="1.1" xmlns="http://www.w3.org/2000/svg" width="221" height="228">
<path d="M0 0 C72.93 0 145.86 0 221 0 C221 75.24 221 150.48 221 228 C148.07 228 75.14 228 0 228 C0 152.76 0 77.52 0 0 Z " fill="#FDFDFD" transform="translate(0,0)"/>
<path d="M0 0 C1.32 1.32 2.64 2.64 4 4 C6.07303751 4.56759156 6.07303751 4.56759156 8.265625 4.46875 C9.07386719 4.48292969 9.88210938 4.49710938 10.71484375 4.51171875 C12.38932325 4.50397847 14.06380243 4.49616734 15.73828125 4.48828125 C21.55189553 4.58962793 26.33999604 5.29573863 31 9 C35.86142642 16.07427255 37.34066183 25.01668756 39.4375 33.25 C39.83691402 34.79014782 40.23706558 36.33010455 40.63793945 37.86987305 C42.90845779 46.61776582 45.10786542 55.38294587 47.26416016 64.15966797 C48.86924621 70.63072798 50.68550786 77.03191273 52.56152344 83.42919922 C54.11413471 88.76348599 55.55608391 94.11695586 56.9140625 99.50390625 C61.49264068 122.65128555 61.49264068 122.65128555 75.04160213 140.84520435 C82.0227432 144.9617281 89.15537597 145.43336905 97.08764648 145.37231445 C98.1586409 145.37596512 99.22963531 145.37961578 100.33308411 145.38337708 C103.84591906 145.39143339 107.35828582 145.37791943 110.87109375 145.36328125 C113.31966654 145.36276232 115.76823975 145.36328129 118.21681213 145.36479187 C123.33332586 145.36470238 128.44968124 145.35431612 133.56616211 145.33618164 C140.13597156 145.31341128 146.70555154 145.31296808 153.27538967 145.31969929 C158.32383784 145.3230327 163.37223328 145.31642244 168.42067146 145.30657005 C170.84447008 145.30271321 173.26827456 145.30157183 175.69207573 145.3031559 C179.06753716 145.303525 182.44269868 145.29095277 185.81811523 145.2746582 C187.32899216 145.27837433 187.32899216 145.27837433 188.87039185 145.28216553 C189.78569168 145.27508072 190.70099152 145.26799591 191.64402771 145.26069641 C192.44167258 145.25864354 193.23931746 145.25659067 194.06113338 145.25447559 C196.2369386 145.16911176 196.2369386 145.16911176 198 143 C198.34216235 138.34805286 198.34216235 138.34805286 197 134 C194.21180767 133.07060256 192.54121776 132.87340018 189.66217041 132.86869812 C188.77626221 132.86468994 187.890354 132.86068176 186.9776001 132.85655212 C186.00820496 132.85708084 185.03880981 132.85760956 184.04003906 132.8581543 C183.01696655 132.85467987 181.99389404 132.85120544 180.93981934 132.84762573 C178.71521805 132.84026757 176.49060941 132.83492251 174.26599884 132.83133507 C170.74365778 132.82417409 167.22145638 132.80850985 163.69915771 132.78999329 C153.68324709 132.73750843 143.66741236 132.68954903 133.65136719 132.67407227 C127.52695446 132.66398771 121.40289213 132.63464967 115.27861786 132.59275246 C112.94549968 132.58044349 110.61233201 132.575321 108.27918243 132.57755089 C105.01158806 132.57990522 101.7449977 132.55772558 98.47753906 132.5300293 C97.51624084 132.53663071 96.55494263 132.54323212 95.56451416 132.55003357 C89.52991964 132.4661746 85.9378108 131.53502016 81 128 C79.2578125 125.6328125 79.2578125 125.6328125 78.125 123.125 C77.54105469 121.89136719 77.54105469 121.89136719 76.9453125 120.6328125 C75.9159177 117.76582038 75.46717384 115.00429513 75 112 C75.62083623 111.99576806 76.24167246 111.99153612 76.88132191 111.98717594 C91.97888734 111.88392771 107.07640361 111.77529871 122.1738863 111.66066074 C129.474876 111.60535312 136.7758706 111.55187515 144.0769043 111.50268555 C150.43954874 111.45981358 156.80215756 111.41352797 163.16474694 111.36312145 C166.53452092 111.33654479 169.90428795 111.31169233 173.27410316 111.29092598 C177.033453 111.26690172 180.79270858 111.23684425 184.55200195 111.20532227 C185.67265549 111.1995668 186.79330902 111.19381134 187.94792175 111.18788147 C188.97015839 111.17809265 189.99239502 111.16830383 191.04560852 111.15821838 C192.37990386 111.14853956 192.37990386 111.14853956 193.74115467 111.1386652 C196.16822887 111.08698237 196.16822887 111.08698237 199 110 C200.13014442 107.49688447 200.13014442 107.49688447 200.94433594 104.37817383 C201.28396362 103.19454254 201.62359131 102.01091125 201.97351074 100.79141235 C203.67019828 94.52457414 205.30910821 88.24603378 206.890625 81.94921875 C207.24334188 80.55524984 207.59635463 79.16135577 207.949646 77.76753235 C208.86657956 74.14674205 209.77956451 70.52496812 210.69165039 66.9029541 C211.62792653 63.18793974 212.56804459 59.47389792 213.5078125 55.75976562 C215.34224304 48.50744182 217.17249142 41.25407154 219 34 C219.66 34 220.32 34 221 34 C221 85.81 221 137.62 221 191 C148.07 191 75.14 191 0 191 C0 127.97 0 64.94 0 0 Z " fill="#FDFDFD" transform="translate(0,37)"/>
<path d="M0 0 C1.50530273 -0.02320312 1.50530273 -0.02320312 3.04101562 -0.046875 C12.75582219 0.00369003 19.9731881 2.89416408 27.08984375 9.515625 C31.86744135 15.01907076 33.07165802 21.53663208 34.8125 28.5 C45.7025 28.995 45.7025 28.995 56.8125 29.5 C58.1325 32.47 59.4525 35.44 60.8125 38.5 C62.1325 40.48 63.4525 42.46 64.8125 44.5 C52.4375 44.995 52.4375 44.995 39.8125 45.5 C42.50923521 56.52488806 45.29086119 67.48657475 48.49267578 78.37573242 C51.12240706 87.37650978 53.42183704 96.41548075 55.8125 105.5 C94.7525 105.83 133.6925 106.16 173.8125 106.5 C175.1325 100.56 176.4525 94.62 177.8125 88.5 C178.56778496 85.21124648 179.32590523 81.92444761 180.1015625 78.640625 C180.29092377 77.83687439 180.48028503 77.03312378 180.67538452 76.20501709 C181.0661539 74.54863658 181.45755328 72.89240455 181.84960938 71.23632812 C182.44688603 68.71030425 183.03986934 66.18329417 183.6328125 63.65625 C184.01796984 62.02598038 184.40337693 60.39576973 184.7890625 58.765625 C185.05005234 57.64997162 185.05005234 57.64997162 185.3163147 56.51177979 C185.48343964 55.80954285 185.65056458 55.10730591 185.82275391 54.38378906 C185.9661319 53.7763385 186.10950989 53.16888794 186.25723267 52.54302979 C186.9950195 49.8284446 187.92293257 47.16870229 188.8125 44.5 C180.5625 44.5 172.3125 44.5 163.8125 44.5 C165.7925 41.53 167.7725 38.56 169.8125 35.5 C171.18043675 32.16273623 171.18043675 32.16273623 171.8125 29.5 C176.39578022 29.44197249 180.97896604 29.40639407 185.5625 29.375 C186.86445313 29.35824219 188.16640625 29.34148438 189.5078125 29.32421875 C190.75820312 29.31777344 192.00859375 29.31132813 193.296875 29.3046875 C194.44897461 29.29421387 195.60107422 29.28374023 196.78808594 29.27294922 C199.73668554 29.49430841 201.37915687 29.86413304 203.8125 31.5 C206.74817949 37.37135898 204.2182341 45.20318213 202.76171875 51.23828125 C202.54045822 52.18157791 202.31919769 53.12487457 202.0912323 54.09675598 C199.39815846 65.45678682 196.49742115 76.76629623 193.5637207 88.06616211 C192.60944301 91.74751479 191.6649359 95.43129404 190.72070312 99.11523438 C190.11256375 101.46629712 189.50386171 103.81721442 188.89453125 106.16796875 C188.61430618 107.26465378 188.33408112 108.36133881 188.04536438 109.49125671 C187.78136337 110.50114151 187.51736237 111.51102631 187.24536133 112.55151367 C187.01617508 113.43779953 186.78698883 114.32408539 186.55085754 115.23722839 C185.8125 117.5 185.8125 117.5 183.8125 120.5 C180.85206827 121.48681058 178.94421159 121.62345255 175.85810852 121.62025452 C174.83587189 121.62162918 173.81363525 121.62300385 172.76042175 121.62442017 C171.63976822 121.62082489 170.51911469 121.61722961 169.36450195 121.61352539 C168.18388184 121.61367142 167.00326172 121.61381744 165.78686523 121.6139679 C162.54952558 121.61339024 159.31222905 121.60837183 156.074898 121.60139394 C152.69163211 121.59514648 149.30836538 121.5945555 145.9250946 121.59336853 C139.51843784 121.59025933 133.11179813 121.58205147 126.70514888 121.57201904 C119.41138731 121.56084516 112.11762494 121.55534423 104.82385695 121.55032361 C89.8200618 121.53986853 74.8162826 121.52227702 59.8125 121.5 C60.58363535 123.60172921 61.36406532 125.70004985 62.1484375 127.796875 C62.7988501 129.55016113 62.7988501 129.55016113 63.46240234 131.33886719 C65.10378977 135.18202893 66.48401559 137.04743254 69.8125 139.5 C72.59966948 140.42905649 74.29062468 140.63041161 77.17051697 140.64476013 C78.50588249 140.65510788 78.50588249 140.65510788 79.8682251 140.66566467 C80.84233337 140.66827805 81.81644165 140.67089142 82.82006836 140.67358398 C83.84795975 140.680271 84.87585114 140.68695801 85.93489075 140.69384766 C88.16931405 140.70790685 90.40375178 140.71979813 92.63819695 140.72979546 C96.1723086 140.74618635 99.70631307 140.76942277 103.2403717 140.79469299 C113.28934403 140.86552725 123.33835979 140.92564494 133.38745117 140.97680664 C139.53121325 141.00856585 145.67485172 141.04983215 151.81851387 141.09700203 C154.16248925 141.1130387 156.50649311 141.12535254 158.85050774 141.13390923 C162.12564553 141.14603848 165.40049165 141.17017803 168.67553711 141.19702148 C169.64762115 141.19761063 170.6197052 141.19819977 171.62124634 141.19880676 C172.9608416 141.21338425 172.9608416 141.21338425 174.32749939 141.22825623 C175.48864462 141.23460413 175.48864462 141.23460413 176.67324734 141.24108028 C179.11972661 141.53718449 180.72518231 142.20227937 182.8125 143.5 C184.33741998 146.54983996 184.04812548 149.1423369 183.8125 152.5 C182.25722748 154.63791853 181.36881353 155.39814253 178.75058556 155.87752342 C177.55550094 155.87922004 177.55550094 155.87922004 176.33627319 155.88095093 C175.41959869 155.8894104 174.50292419 155.89786987 173.55847168 155.90658569 C172.55481567 155.900513 171.55115967 155.89444031 170.51708984 155.88818359 C168.92877853 155.89606903 168.92877853 155.89606903 167.30838013 155.90411377 C163.79658385 155.91735086 160.28523867 155.90855854 156.7734375 155.8984375 C154.33305779 155.90045807 151.89267867 155.90336936 149.45230103 155.90713501 C144.32930776 155.91156414 139.20647117 155.90511156 134.08349609 155.89111328 C127.52983714 155.87407551 120.97654823 155.88382475 114.42290306 155.90183067 C109.37844077 155.91269887 104.33406536 155.90920727 99.28960037 155.9014473 C96.87437521 155.89945086 94.45914208 155.90188493 92.04392624 155.90888596 C88.65716607 155.91654405 85.27099399 155.90483221 81.88427734 155.88818359 C80.89276672 155.89425629 79.9012561 155.90032898 78.87969971 155.90658569 C69.43568409 155.82101162 61.83339139 153.80937455 55.01904297 147.02978516 C45.81144447 136.47334173 43.54759829 120.29125927 40.1875 107.125 C39.62352587 104.95022747 39.0584287 102.77574586 38.4921875 100.6015625 C37.40478413 96.42079984 36.3232335 92.23860124 35.24707031 88.05493164 C33.7845985 82.37741311 32.2794343 76.71242069 30.76025391 71.04980469 C29.6905791 67.04334624 28.64118409 63.03184659 27.59375 59.01953125 C27.02460559 56.84666803 26.45500775 54.67392419 25.88525391 52.5012207 C25.50210236 51.03704612 25.12027513 49.57252436 24.73974609 48.10766602 C22.87554162 40.9366079 20.97902567 33.7765286 18.78125 26.69921875 C18.49701172 25.78358154 18.21277344 24.86794434 17.91992188 23.92456055 C16.29209812 20.36064572 14.03891583 18.20112702 10.66015625 16.26953125 C5.76523625 14.94676137 0.72067465 15.17813429 -4.32617188 15.19726562 C-10.60265927 15.04466083 -10.60265927 15.04466083 -13.74609375 12.1171875 C-15.36941584 9.1696921 -15.86375759 7.79675577 -15.1875 4.5 C-11.6562698 -1.12304398 -5.93104313 -0.08969441 0 0 Z " fill="#040404" transform="translate(15.1875,27.5)"/>
<path d="M0 0 C2.57711066 2.20281602 3.8400235 4.00766563 4.38439941 7.38442993 C4.56024699 10.40384454 4.60589514 13.40122914 4.609375 16.42578125 C4.62591125 17.52850876 4.64244751 18.63123627 4.65948486 19.76737976 C4.7079915 23.28247636 4.72934261 26.7971402 4.75 30.3125 C4.77815731 32.69858951 4.8080844 35.08465884 4.83984375 37.47070312 C4.91375125 43.31372346 4.96537824 49.15662195 5 55 C5.88042969 54.24074219 6.76085937 53.48148438 7.66796875 52.69921875 C8.84098118 51.69512011 10.01416748 50.69122458 11.1875 49.6875 C11.76564453 49.18798828 12.34378906 48.68847656 12.93945312 48.17382812 C20.94753086 41.34207819 20.94753086 41.34207819 26 40.5 C30.16402963 41.19400494 31.54597925 42.6076772 34 46 C34.625 49.5 34.625 49.5 34 53 C30.45580103 56.93510327 26.40567528 60.32618292 22.375 63.75 C21.45738892 64.53117187 21.45738892 64.53117187 20.52124023 65.328125 C18.6835858 66.88870886 16.84217977 68.44476255 15 70 C14.20408447 70.67579102 14.20408447 70.67579102 13.39208984 71.36523438 C-0.44551241 83.08882085 -0.44551241 83.08882085 -5.80859375 82.90234375 C-9.79307749 81.77576389 -12.26079956 79.66901857 -15.25 76.9375 C-16.39618278 75.9286042 -17.54332706 74.92079974 -18.69140625 73.9140625 C-19.53276123 73.16817871 -19.53276123 73.16817871 -20.39111328 72.40722656 C-22.60264331 70.47289286 -24.88567917 68.63795665 -27.1875 66.8125 C-27.97382812 66.18730469 -28.76015625 65.56210938 -29.5703125 64.91796875 C-31.31271227 63.54253742 -33.05782272 62.17053734 -34.8046875 60.80078125 C-35.71476562 60.08277344 -36.62484375 59.36476562 -37.5625 58.625 C-38.38878906 57.97789063 -39.21507813 57.33078125 -40.06640625 56.6640625 C-42.78853109 54.32138537 -42.96436229 53.31479973 -43.375 49.6875 C-43 46 -43 46 -40.875 43.0625 C-37.43281032 40.59310306 -36.14966721 40.53322656 -32 41 C-29.25390625 42.5390625 -29.25390625 42.5390625 -26.5625 44.625 C-25.23412109 45.63433594 -25.23412109 45.63433594 -23.87890625 46.6640625 C-21.66221551 48.46267996 -19.48416607 50.28569002 -17.32006836 52.14599609 C-16.38450356 52.94969131 -16.38450356 52.94969131 -15.43003845 53.7696228 C-14.95812576 54.17564728 -14.48621307 54.58167175 -14 55 C-13.99635437 54.36995056 -13.99270874 53.73990112 -13.98895264 53.09075928 C-13.94716288 46.53685536 -13.87784201 39.98365405 -13.79248047 33.43017578 C-13.76424365 30.98395818 -13.74304269 28.53764888 -13.72900391 26.09130859 C-13.70761269 22.57601886 -13.66097962 19.06183488 -13.609375 15.546875 C-13.60753204 13.9044986 -13.60753204 13.9044986 -13.60565186 12.22894287 C-13.58593323 11.20818665 -13.5662146 10.18743042 -13.54589844 9.13574219 C-13.53701599 8.23861511 -13.52813354 7.34148804 -13.51898193 6.41717529 C-12.83322534 3.22324156 -11.50940219 2.02944284 -9 0 C-5.39297148 -1.20234284 -3.64185324 -1.0405295 0 0 Z " fill="#010101" transform="translate(134,1)"/>
<path d="M0 0 C5.17471668 3.33481741 8.64852809 7.00394383 10.8125 12.8125 C11.51891617 19.06932896 10.56635131 23.67565084 6.8125 28.8125 C3.29761972 32.17745648 -0.25553224 34.44260242 -5.1875 34.8125 C-6.280625 34.93625 -7.37375 35.06 -8.5 35.1875 C-13.38000352 34.69122846 -16.45144936 32.9312901 -20.1875 29.8125 C-24.34796024 24.47857662 -25.62975792 20.55693328 -25.1875 13.8125 C-23.98475368 7.58227407 -21.27229496 4.5191662 -16.125 0.94140625 C-10.9460185 -2.07618579 -5.46851436 -2.03728966 0 0 Z " fill="#040404" transform="translate(99.1875,193.1875)"/>
<path d="M0 0 C2.98170198 2.38536158 5.09626047 5.03627094 6.796875 8.4375 C7.32466767 14.6492137 7.54091143 20.195849 3.796875 25.4375 C-0.96195203 29.98942151 -4.50599409 32.12799317 -11.015625 32.875 C-15.97601561 32.74372312 -19.42959129 30.5082026 -23.203125 27.4375 C-27.92662158 22.35065753 -28.67099567 18.07164205 -28.6171875 11.30078125 C-27.93654694 6.59408756 -25.56729442 3.67441952 -22.203125 0.4375 C-14.96425702 -4.90547399 -7.40979519 -5.05474401 0 0 Z " fill="#020202" transform="translate(181.203125,195.5625)"/>
<path d="M0 0 C3 0.25 3 0.25 5 2.25 C5.265625 5 5.265625 5 5.25 8.25 C5.25515625 9.3225 5.2603125 10.395 5.265625 11.5 C5 14.25 5 14.25 3 16.25 C-0.5625 16.4375 -0.5625 16.4375 -4 16.25 C-5.87243981 14.37756019 -5.17380392 11.31340482 -5.1875 8.8125 C-5.20167969 7.63816406 -5.21585938 6.46382813 -5.23046875 5.25390625 C-4.91308665 1.11718018 -4.13241171 0.34436764 0 0 Z " fill="#070707" transform="translate(157,103.75)"/>
<path d="M0 0 C3 0.25 3 0.25 5 2.25 C5.23046875 5.25390625 5.23046875 5.25390625 5.1875 8.8125 C5.17783203 10.57787109 5.17783203 10.57787109 5.16796875 12.37890625 C5 15.25 5 15.25 4 16.25 C0.5625 16.4375 0.5625 16.4375 -3 16.25 C-5 14.25 -5 14.25 -5.265625 11.5 C-5.26046875 10.4275 -5.2553125 9.355 -5.25 8.25 C-5.25515625 7.1775 -5.2603125 6.105 -5.265625 5 C-4.88124604 1.02054722 -3.9528269 0.32940224 0 0 Z " fill="#090909" transform="translate(126,103.75)"/>
<path d="M0 0 C3 0.25 3 0.25 5 2.25 C5.265625 5 5.265625 5 5.25 8.25 C5.25515625 9.3225 5.2603125 10.395 5.265625 11.5 C5 14.25 5 14.25 3 16.25 C0 16.5 0 16.5 -3 16.25 C-5 14.25 -5 14.25 -5.265625 11.5 C-5.26046875 10.4275 -5.2553125 9.355 -5.25 8.25 C-5.25515625 7.1775 -5.2603125 6.105 -5.265625 5 C-4.88124604 1.02054722 -3.9528269 0.32940224 0 0 Z " fill="#010101" transform="translate(96,103.75)"/>
</svg>
