<?xml version="1.0" encoding="UTF-8"?>
<svg version="1.1" xmlns="http://www.w3.org/2000/svg" width="512" height="512">
<path d="M0 0 C1.49829346 0.00966797 1.49829346 0.00966797 3.02685547 0.01953125 C22.64232798 0.4984954 37.2597457 9.83209039 51.8125 22.5 C52.5859375 23.16257812 53.359375 23.82515625 54.15625 24.5078125 C71.23890431 39.48360611 88.09836809 56.62337452 99.5078125 76.4453125 C100.15363281 77.46238281 100.15363281 77.46238281 100.8125 78.5 C101.4725 78.5 102.1325 78.5 102.8125 78.5 C104.02617672 76.83917923 105.15610367 75.11704696 106.25 73.375 C114.271829 61.07486221 123.63816486 50.06287547 133.8125 39.5 C134.39547852 38.88979004 134.97845703 38.27958008 135.57910156 37.65087891 C153.30678738 19.17313932 173.57574469 0.83869532 200.42724609 -0.03857422 C220.21357524 -0.19583782 236.35804573 5.60230989 250.8125 19.5 C264.35137176 34.53134582 268.75104267 51.48912006 267.95605469 71.22607422 C266.91166444 87.76935782 258.3056074 102.99035121 246.09765625 113.93359375 C240.66765498 118.25572899 235.21302846 121.42775571 228.9140625 124.265625 C228.22739502 124.58031738 227.54072754 124.89500977 226.83325195 125.21923828 C225.16189199 125.98436913 223.48750808 126.74288886 221.8125 127.5 C222.94287689 127.50142502 224.07325378 127.50285004 225.23788452 127.50431824 C235.91888625 127.52102699 246.59950889 127.56391908 257.28030968 127.63209057 C262.77074971 127.6663021 268.2609132 127.69146151 273.75146484 127.69555664 C279.05557688 127.69985205 284.3590657 127.72841811 289.66298294 127.77343178 C291.6810098 127.78636705 293.6991114 127.79072862 295.71717453 127.78615379 C317.15526916 127.74889256 317.15526916 127.74889256 325.61459351 135.05680847 C331.82784491 141.48959731 333.2700006 149.6250205 333.20068359 158.2734375 C333.20856903 159.51193451 333.20856903 159.51193451 333.21661377 160.77545166 C333.2297013 163.47549975 333.22111599 166.17494705 333.2109375 168.875 C333.21296147 170.76871859 333.2158756 172.66243641 333.21963501 174.55615234 C333.22404314 178.51342229 333.21767615 182.47048825 333.20361328 186.42773438 C333.18652236 191.48135621 333.19637167 196.53449993 333.21433067 201.58810425 C333.22520945 205.49507196 333.22170343 209.4019277 333.2139473 213.30889893 C333.21195659 215.17148903 333.21436453 217.03408955 333.22138596 218.89666748 C333.22906819 221.50690355 333.21730246 224.11638233 333.20068359 226.7265625 C333.20675629 227.48422913 333.21282898 228.24189575 333.21908569 229.02252197 C333.12733969 236.86352824 331.12925564 244.11019734 325.6796875 249.92578125 C319.75559953 254.92035751 314.47192649 256.62172066 306.8125 256.5 C306.81710896 257.71221663 306.82171793 258.92443325 306.82646656 260.17338371 C306.93483572 288.97105297 307.0172425 317.76871868 307.06782665 346.56654476 C307.07407992 350.11369947 307.08055156 353.66085375 307.0871582 357.20800781 C307.08846976 357.91416041 307.08978131 358.62031301 307.0911326 359.34786417 C307.11286891 370.77076105 307.15228056 382.19353167 307.19826398 393.61635374 C307.24507821 405.34366284 307.27280586 417.07090597 307.28294247 428.79830468 C307.28945746 435.38275094 307.30475606 441.96691117 307.34115028 448.55126572 C307.3751432 454.75154382 307.38554601 460.95141864 307.37803841 467.15178108 C307.37941145 469.4245339 307.38932381 471.69730051 307.40852737 473.96997261 C307.43351635 477.08047866 307.42738315 480.18947511 307.41377258 483.30001831 C307.42833679 484.19304464 307.442901 485.08607097 307.45790654 486.00615871 C307.36726603 493.70404384 304.72990397 500.05215894 299.75 505.9375 C299.110625 506.453125 298.47125 506.96875 297.8125 507.5 C297.173125 508.03625 296.53375 508.5725 295.875 509.125 C291.44025582 512.08149612 287.66831317 512.75067334 282.37871075 512.75726891 C281.07089915 512.7637178 279.76308755 512.77016669 278.4156453 512.776811 C276.96595451 512.77386878 275.5162641 512.77073335 274.0665741 512.76742554 C272.52528276 512.7711619 270.98399332 512.77576337 269.44270688 512.78115618 C265.20523823 512.79340335 260.96784843 512.7931237 256.73036611 512.79076743 C252.16105706 512.7903597 247.59177343 512.80139425 243.0224762 512.81088257 C234.06953126 512.82750295 225.11661265 512.83299258 216.16365357 512.83410732 C208.88694904 512.83505731 201.61025319 512.8391651 194.33355141 512.84550858 C173.70737742 512.8631238 153.08122425 512.872347 132.45504268 512.87084763 C131.34283514 512.87076772 130.2306276 512.8706878 129.0847168 512.87060547 C127.4143709 512.87048283 127.4143709 512.87048283 125.71028063 512.87035771 C107.66142531 512.86954472 89.61265342 512.8886848 71.56382223 512.9168822 C53.03593603 512.94559986 34.50809054 512.95942311 15.98018152 512.95769465 C5.57634827 512.95703036 -4.8273975 512.96253962 -15.23121071 512.98405075 C-24.08903161 513.00224782 -32.9467254 513.00662201 -41.80455688 512.9930319 C-46.32404141 512.98649481 -50.84328195 512.98641174 -55.36274338 513.0037384 C-59.50127454 513.0194415 -63.63936772 513.01663395 -67.77788802 512.99917014 C-69.27383526 512.99609413 -70.76981496 512.99975529 -72.26572392 513.01089029 C-81.50769622 513.07511975 -88.15876153 512.8167047 -95.39453125 506.60546875 C-96.18923828 505.65607422 -96.18923828 505.65607422 -97 504.6875 C-97.81404297 503.74970703 -97.81404297 503.74970703 -98.64453125 502.79296875 C-102.93653434 496.41472619 -103.62109333 491.17639149 -103.54826355 483.66078186 C-103.55082682 482.68699898 -103.5533901 481.71321609 -103.55603105 480.70992464 C-103.56096121 477.45626742 -103.54448835 474.20307716 -103.52807617 470.94946289 C-103.52722974 468.61348481 -103.52770536 466.27750593 -103.52940369 463.94152832 C-103.53026441 457.60529807 -103.51262587 451.26923819 -103.49168181 444.93304753 C-103.4748285 438.98055271 -103.47181164 433.0280644 -103.4687262 427.07554894 C-103.46216675 415.28853373 -103.44221939 403.50158094 -103.41381836 391.71459961 C-103.38626464 380.26733715 -103.3650375 368.82009168 -103.35229492 357.37280273 C-103.35150675 356.66672385 -103.35071858 355.96064496 -103.34990653 355.23316974 C-103.3459913 351.6908394 -103.3422002 348.14850894 -103.33847082 344.6061784 C-103.30739071 315.23741203 -103.25434511 285.86870668 -103.1875 256.5 C-104.28763428 256.51748291 -105.38776855 256.53496582 -106.52124023 256.55297852 C-112.5871996 256.46532365 -117.45048038 253.80757094 -122.0546875 249.92578125 C-128.16651244 243.4034606 -129.64517447 235.39667349 -129.57568359 226.7265625 C-129.58094055 225.90089783 -129.58619751 225.07523315 -129.59161377 224.22454834 C-129.6047013 221.52450025 -129.59611599 218.82505295 -129.5859375 216.125 C-129.58796147 214.23128141 -129.5908756 212.33756359 -129.59463501 210.44384766 C-129.59904314 206.48657771 -129.59267615 202.52951175 -129.57861328 198.57226562 C-129.56152236 193.51864379 -129.57137167 188.46550007 -129.58933067 183.41189575 C-129.60020945 179.50492804 -129.59670343 175.5980723 -129.5889473 171.69110107 C-129.58695659 169.82851097 -129.58936453 167.96591045 -129.59638596 166.10333252 C-129.60406819 163.49309645 -129.59230246 160.88361767 -129.57568359 158.2734375 C-129.58175629 157.51577087 -129.58782898 156.75810425 -129.59408569 155.97747803 C-129.50249697 148.14991288 -127.5316437 140.79468005 -121.98959351 135.05680847 C-112.32765554 126.70996807 -101.138106 127.76564722 -89.0859375 127.79296875 C-87.03755227 127.77983888 -84.98917996 127.76453072 -82.94082642 127.74714661 C-77.57819738 127.7074348 -72.21590812 127.69711505 -66.85314941 127.69311523 C-61.3694436 127.68375772 -55.88593525 127.6463278 -50.40234375 127.61132812 C-39.66407161 127.54689298 -28.92594857 127.51353751 -18.1875 127.5 C-19.27361572 126.96673096 -20.35973145 126.43346191 -21.47875977 125.8840332 C-22.92473261 125.1689659 -24.3706097 124.45370495 -25.81640625 123.73828125 C-26.52978149 123.38866333 -27.24315674 123.03904541 -27.97814941 122.67883301 C-45.09110005 114.18857289 -55.91138563 101.46463755 -62.28515625 83.38671875 C-67.07265293 65.86225415 -64.80559611 47.75446775 -56.19140625 31.890625 C-46.59553245 15.65433171 -32.15867093 5.90470836 -14.14233398 1.12841797 C-9.41800184 0.12367279 -4.81767024 -0.03295824 0 0 Z M-29.1875 40.5 C-35.80479424 49.40026075 -38.89396714 57.85231888 -37.9765625 69.08203125 C-36.23635957 79.50683181 -31.26813178 88.59232771 -22.8125 94.9375 C1.71660344 111.37306424 37.29169823 117.67171066 66.3125 117.6875 C67.49714844 117.69974609 68.68179688 117.71199219 69.90234375 117.72460938 C76.2363021 117.73520128 81.75733415 117.39598634 87.8125 115.5 C87.31344731 109.77206693 85.73184591 105.59379643 83 100.5625 C82.60474121 99.82741211 82.20948242 99.09232422 81.80224609 98.33496094 C77.24883111 90.12653115 71.67972604 82.80178431 65.8125 75.5 C65.17586426 74.68982422 65.17586426 74.68982422 64.52636719 73.86328125 C50.08286434 55.52892272 29.89538467 31.39821383 5.8125 26.5 C-8.05823227 25.27988929 -20.02215567 29.84838362 -29.1875 40.5 Z M160.8125 50.5 C160.18408203 51.10263672 159.55566406 51.70527344 158.90820312 52.32617188 C149.72114913 61.15748322 141.31496974 70.19467522 133.8125 80.5 C133.41482422 81.03689453 133.01714844 81.57378906 132.60742188 82.12695312 C128.06006611 88.29247832 123.9914639 94.66228537 120.3125 101.375 C119.97387939 101.98142334 119.63525879 102.58784668 119.28637695 103.21264648 C117.07199803 107.39306814 116.23933428 110.86410551 115.8125 115.5 C146.88546892 124.91605119 191.62479757 113.58324958 219.828125 98.93359375 C226.23189142 95.19806334 231.52356175 91.50517284 235.5 85.125 C236.08136719 84.20976563 236.66273438 83.29453125 237.26171875 82.3515625 C241.87719697 73.86466301 242.81436851 64.34069882 240.609375 54.984375 C236.767152 43.00567975 229.84528939 35.29432668 218.78125 29.421875 C195.86202113 19.16853577 176.45005008 35.2993547 160.8125 50.5 Z M-102.1875 154.5 C-102.1875 179.58 -102.1875 204.66 -102.1875 230.5 C-60.2775 230.5 -18.3675 230.5 24.8125 230.5 C24.8125 205.42 24.8125 180.34 24.8125 154.5 C-17.0975 154.5 -59.0075 154.5 -102.1875 154.5 Z M50.8125 154.5 C50.8125 264.06 50.8125 373.62 50.8125 486.5 C84.4725 486.5 118.1325 486.5 152.8125 486.5 C152.8125 376.94 152.8125 267.38 152.8125 154.5 C119.1525 154.5 85.4925 154.5 50.8125 154.5 Z M178.8125 154.5 C178.8125 179.58 178.8125 204.66 178.8125 230.5 C220.7225 230.5 262.6325 230.5 305.8125 230.5 C305.8125 205.42 305.8125 180.34 305.8125 154.5 C263.9025 154.5 221.9925 154.5 178.8125 154.5 Z M-77.1875 256.5 C-77.1875 332.4 -77.1875 408.3 -77.1875 486.5 C-43.5275 486.5 -9.8675 486.5 24.8125 486.5 C24.8125 410.6 24.8125 334.7 24.8125 256.5 C-8.8475 256.5 -42.5075 256.5 -77.1875 256.5 Z M178.8125 256.5 C178.8125 332.4 178.8125 408.3 178.8125 486.5 C212.4725 486.5 246.1325 486.5 280.8125 486.5 C280.8125 410.6 280.8125 334.7 280.8125 256.5 C247.1525 256.5 213.4925 256.5 178.8125 256.5 Z " fill="#000000" transform="translate(154.1875,-0.5)"/>
</svg>
