<?xml version="1.0" encoding="UTF-8"?>
<svg version="1.1" xmlns="http://www.w3.org/2000/svg" width="224" height="224">
<path d="M0 0 C73.92 0 147.84 0 224 0 C224 73.92 224 147.84 224 224 C150.08 224 76.16 224 0 224 C0 150.08 0 76.16 0 0 Z " fill="#FEFEFE" transform="translate(0,0)"/>
<path d="M0 0 C1.10037094 -0.00730133 2.20074188 -0.01460266 3.3344574 -0.02212524 C6.94879114 -0.03825377 10.56130803 -0.01119049 14.17553711 0.01806641 C16.6994171 0.01910456 19.22329873 0.01806549 21.74717712 0.01504517 C27.02696761 0.01522424 32.30629392 0.03532223 37.5859375 0.07226562 C43.67269753 0.11461529 49.75870259 0.12161304 55.84558016 0.10914171 C61.72484218 0.0977168 67.60383631 0.10930106 73.48306084 0.1314888 C75.97446061 0.13917046 78.46588297 0.14149851 80.95729256 0.13831711 C84.44201563 0.13757299 87.92560415 0.16289123 91.41015625 0.1953125 C92.43323883 0.19035767 93.45632141 0.18540283 94.51040649 0.18029785 C101.33135008 0.28126913 107.07279702 1.35278599 112.16243076 6.19170189 C115.63825313 10.1812788 117.88340412 13.68600989 117.9078064 19.00616455 C117.92060135 20.27181496 117.92060135 20.27181496 117.93365479 21.56303406 C117.93229523 22.93924675 117.93229523 22.93924675 117.9309082 24.34326172 C117.93762543 25.31610611 117.94434265 26.2889505 117.95126343 27.29127502 C117.97027377 30.51015318 117.97416945 33.72882309 117.97631836 36.94775391 C117.98274516 39.18731777 117.98947343 41.42688078 117.99649048 43.66644287 C118.00847155 48.36391139 118.01217054 53.06130634 118.01098633 57.75878906 C118.01078332 63.7688988 118.03806327 69.77853471 118.07253075 75.78853226 C118.09480587 80.41603752 118.09882364 85.04342898 118.09776688 89.67098236 C118.10012276 91.88609192 118.10894551 94.10120462 118.12443161 96.31626129 C118.14409933 99.42064722 118.1382495 102.52401449 118.1262207 105.62841797 C118.13745972 106.53779617 118.14869873 107.44717438 118.16027832 108.3841095 C118.10274923 114.24776041 117.24163317 118.98097025 113.64038086 123.74462891 C108.47270418 127.7739895 102.43188321 127.17484822 96.16235352 127.14868164 C94.43930244 127.15897652 94.43930244 127.15897652 92.68144226 127.16947937 C88.8889831 127.18776154 85.09693709 127.18390734 81.30444336 127.17822266 C78.66417303 127.18278402 76.02390389 127.18808946 73.38363647 127.19410706 C67.85068828 127.20412818 62.31785702 127.20084612 56.78491211 127.19067383 C50.40345714 127.17920028 44.02242282 127.19325855 37.64102328 127.2200703 C31.48577455 127.24495675 25.33071891 127.24739527 19.17542648 127.24095345 C16.56399206 127.24080022 13.95254955 127.24684512 11.34114456 127.25924492 C7.68617911 127.2741536 4.03213429 127.26347682 0.37719727 127.24633789 C-0.69735214 127.25600586 -1.77190155 127.26567383 -2.87901306 127.27563477 C-9.20663348 127.21363195 -14.10339035 126.44005612 -19.35961914 122.74462891 C-22.99782939 118.91984378 -24.47581188 115.89157531 -24.50679016 110.64131165 C-24.51394547 109.80733353 -24.52110077 108.97335541 -24.5284729 108.11410522 C-24.5311618 107.20238556 -24.53385071 106.29066589 -24.53662109 105.35131836 C-24.54319229 104.38837357 -24.54976349 103.42542877 -24.55653381 102.43330383 C-24.57626918 99.24150516 -24.58793076 96.04975357 -24.59790039 92.85791016 C-24.60197592 91.76739035 -24.60605145 90.67687054 -24.61025047 89.55330467 C-24.63111348 83.77992314 -24.64541351 78.00656538 -24.65478516 72.2331543 C-24.66584241 66.27572949 -24.70023411 60.31867893 -24.73995686 54.3613863 C-24.76612977 49.77592789 -24.77447768 45.1905585 -24.77806664 40.60503197 C-24.7829318 38.40945092 -24.79454373 36.21387384 -24.81310463 34.01836586 C-24.83750693 30.9402484 -24.83652862 27.86309711 -24.82958984 24.78491211 C-24.8423999 23.8833136 -24.85520996 22.98171509 -24.8684082 22.05279541 C-24.82037331 16.1860939 -24.04508047 11.45361992 -20.35961914 6.74462891 C-14.184823 0.78976077 -8.3142819 -0.12448298 0 0 Z " fill="#090909" transform="translate(65.359619140625,48.25537109375)"/>
<path d="M0 0 C1.41937866 -0.01496269 1.41937866 -0.01496269 2.86743164 -0.03022766 C4.42206367 -0.03122467 4.42206367 -0.03122467 6.00810242 -0.03224182 C7.10105621 -0.04056534 8.19401001 -0.04888885 9.32008362 -0.0574646 C12.94358351 -0.08161672 16.56690354 -0.0903434 20.19047546 -0.09693909 C22.70530248 -0.1059018 25.22012894 -0.11502357 27.73495483 -0.1242981 C33.01172119 -0.14080506 38.28844352 -0.14852438 43.56523132 -0.15138245 C49.65759337 -0.15501556 55.74945096 -0.18489354 61.84165889 -0.22678703 C67.70802643 -0.26570872 73.57419442 -0.27697594 79.44067955 -0.2781086 C81.93377097 -0.28231749 84.42686257 -0.29477837 86.91987038 -0.31562614 C90.40806117 -0.34247221 93.89486117 -0.33773381 97.38310242 -0.32521057 C98.41345108 -0.34004486 99.44379974 -0.35487915 100.50537109 -0.37016296 C105.08608817 -0.32331692 108.36010527 -0.25999033 112.0151062 2.68661499 C115.66057742 6.65900993 115.51263931 8.68722786 115.5032196 14.01878357 C115.50336563 14.71157913 115.50351166 15.40437469 115.50366211 16.11816406 C115.5029644 18.41238007 115.49517863 20.7065153 115.48735046 23.00071716 C115.48548578 24.5896958 115.48406211 26.17867501 115.48306274 27.76765442 C115.47924153 31.95324791 115.4694146 36.13880679 115.45835876 40.3243866 C115.44813616 44.59409619 115.4435633 48.86381136 115.43852234 53.13352966 C115.42779199 61.51375389 115.4107203 69.89394997 115.38969421 78.27415466 C111.47490798 76.43743897 108.44207209 73.91034925 105.20219421 71.08665466 C100.0482652 66.65472787 94.81074446 62.37846402 89.38969421 58.27415466 C84.55480927 60.87466559 80.66618318 64.35004048 76.57719421 67.96165466 C75.53788757 68.87141052 75.53788757 68.87141052 74.47758484 69.79954529 C72.77856077 71.28765602 71.08273552 72.77924538 69.38969421 74.27415466 C65.21103434 72.3811095 62.59386075 69.5231582 59.57719421 66.14915466 C59.04964539 65.56819031 58.52209656 64.98722595 57.9785614 64.38865662 C54.06277183 60.064122 50.18864756 55.70180803 46.38969421 51.27415466 C42.77089249 52.59365133 39.82272749 54.1890876 36.67875671 56.40696716 C35.77423767 57.04094421 34.86971863 57.67492126 33.93778992 58.32810974 C32.97316833 59.01155457 32.00854675 59.69499939 31.01469421 60.39915466 C28.95882722 61.84333961 26.90283376 63.28734454 24.84672546 64.73118591 C23.78792175 65.4770697 22.72911804 66.22295349 21.63822937 66.99143982 C16.34223088 70.71288773 11.02078808 74.39760917 5.70219421 78.08665466 C3.80187323 79.40482731 1.90209173 80.7237782 0.00297546 82.04368591 C-0.79326233 82.59645203 -1.58950012 83.14921814 -2.40986633 83.71873474 C-3.89209003 84.76647103 -5.3470443 85.85375111 -6.77363586 86.97605896 C-8.61030579 88.27415466 -8.61030579 88.27415466 -10.61030579 88.27415466 C-10.67983122 77.79946267 -10.73313003 67.32482562 -10.7657423 56.84994984 C-10.78139495 51.98597879 -10.80262599 47.12216568 -10.83662415 42.25828552 C-10.86923177 37.56393571 -10.88716182 32.86973776 -10.89493752 28.17528343 C-10.9004785 26.38472287 -10.91129869 24.59417057 -10.92749596 22.8036747 C-10.94928899 20.29471023 -10.95227195 17.78637245 -10.95088196 15.27732849 C-10.96166779 14.53789505 -10.97245361 13.79846161 -10.98356628 13.03662109 C-10.95698784 8.59987064 -10.36453395 5.78642172 -7.61030579 2.27415466 C-4.43235685 0.15552204 -3.64060841 0.02057834 0 0 Z " fill="#FDFDFD" transform="translate(59.61030578613281,56.72584533691406)"/>
<path d="M0 0 C5.15223326 4.26596977 9.78387986 8.76973957 14.3125 13.6875 C14.93189453 14.35072266 15.55128906 15.01394531 16.18945312 15.69726562 C18.69476791 18.39843563 20.94989325 20.92483988 23 24 C25.78369232 22.71245239 27.9848361 21.31744265 30.27734375 19.28515625 C30.87353516 18.76373047 31.46972656 18.24230469 32.08398438 17.70507812 C32.69564453 17.16302734 33.30730469 16.62097656 33.9375 16.0625 C37.79206299 12.64939279 41.44954764 9.47814009 46 7 C46.89460938 7.7734375 47.78921875 8.546875 48.7109375 9.34375 C55.08708769 14.8411019 61.484784 20.27779407 68.109375 25.4765625 C71.94138886 28.56434226 71.94138886 28.56434226 72.25878906 30.92358398 C72.26217285 32.07322632 72.26217285 32.07322632 72.265625 33.24609375 C72.26949219 34.50196289 72.26949219 34.50196289 72.2734375 35.78320312 C72.26570313 36.65912109 72.25796875 37.53503906 72.25 38.4375 C72.26160156 39.74557617 72.26160156 39.74557617 72.2734375 41.08007812 C72.27085937 41.91861328 72.26828125 42.75714844 72.265625 43.62109375 C72.26336914 44.3886499 72.26111328 45.15620605 72.25878906 45.94702148 C72 48 72 48 70 51 C67.9094038 51.38311005 67.9094038 51.38311005 65.2754364 51.39440918 C63.78022461 51.41143387 63.78022461 51.41143387 62.25480652 51.42880249 C60.60826836 51.42440659 60.60826836 51.42440659 58.9284668 51.41992188 C57.19906357 51.43262619 57.19906357 51.43262619 55.4347229 51.44558716 C51.60611067 51.46907275 47.77789771 51.46997639 43.94921875 51.46875 C41.96622929 51.47405327 39.9832397 51.47936232 38.00025302 51.48561716 C31.76062933 51.50487128 25.52113941 51.50772857 19.28149414 51.50097656 C12.84659599 51.49434115 6.41227185 51.51717451 -0.02250987 51.55429029 C-5.54703237 51.58499841 -11.0713704 51.59634596 -16.59597653 51.59245348 C-19.89557489 51.59038621 -23.19462726 51.59809241 -26.49416542 51.62034607 C-30.17666897 51.64244418 -33.85778498 51.63287758 -37.5402832 51.61523438 C-38.63190262 51.62849762 -39.72352203 51.64176086 -40.84822083 51.65542603 C-48.24611535 51.57293898 -48.24611535 51.57293898 -52.1714325 48.58976746 C-54.44401836 45.37114474 -54.83994431 43.76661276 -54.57421875 39.93603516 C-53.49651829 36.30246175 -50.53245748 34.61340927 -47.5 32.6875 C-46.4800293 31.9917688 -46.4800293 31.9917688 -45.43945312 31.28198242 C-44.01030532 30.31035221 -42.57324714 29.35026556 -41.12890625 28.40136719 C-39.14953446 27.09843209 -37.1960144 25.76615 -35.25 24.4140625 C-32.69531071 22.63930325 -30.13290341 20.87692631 -27.5625 19.125 C-21.85025549 15.22319364 -16.17679877 11.26561148 -10.5 7.3125 C-9.46552734 6.59231689 -8.43105469 5.87213379 -7.36523438 5.13012695 C-4.9098974 3.42045578 -2.45480914 1.71042893 0 0 Z " fill="#FDFDFD" transform="translate(103,116)"/>
<path d="M0 0 C3.68183442 1.63997202 6.96479016 3.40658878 9.1953125 6.83984375 C10.80019106 11.14808572 10.7371794 15.50066368 10 20 C7.64369417 24.31479378 4.52508966 27.10351993 0 29 C-5.78264351 29.65463889 -9.52872521 28.5526713 -14 25 C-17.07249281 21.61237972 -18.26576869 18.99572998 -18.5 14.5 C-18.27397305 10.01713217 -17.01242101 7.40879219 -14 4 C-9.65542932 0.24787078 -5.67058703 -1.23779605 0 0 Z " fill="#070707" transform="translate(141,71)"/>
<path d="M0 0 C2.7912125 1.98322993 3.82597224 3.12986121 4.5 6.5 C4 9 4 9 2.4375 11.375 C0 13 0 13 -3.625 12.875 C-7 12 -7 12 -9 10 C-9.55021834 3.94759825 -9.55021834 3.94759825 -7.875 1.0625 C-5.06487736 -0.52990283 -3.17235276 -0.45319325 0 0 Z " fill="#F5F5F5" transform="translate(140,79)"/>
</svg>
