<?xml version="1.0" encoding="UTF-8"?>
<svg version="1.1" xmlns="http://www.w3.org/2000/svg" width="200" height="200">
<path d="M0 0 C1.89139458 0.00022659 1.89139458 0.00022659 3.82099915 0.00045776 C5.18690145 0.01066942 6.55280212 0.02110138 7.91870117 0.03173828 C9.32402851 0.03547137 10.72935846 0.03831695 12.13468933 0.04031372 C15.8221666 0.04792689 19.50948474 0.06755526 23.19689941 0.08972168 C26.96417082 0.11023019 30.73146809 0.11932611 34.4987793 0.12939453 C41.88231515 0.15080353 49.26572019 0.18491124 56.64916992 0.22705078 C56.64916992 2.53705078 56.64916992 4.84705078 56.64916992 7.22705078 C55.89383972 7.23735825 55.13850952 7.24766571 54.36029053 7.25828552 C47.2388461 7.35630025 40.11748749 7.45882031 32.99618149 7.56639004 C29.33513084 7.6215328 25.67407209 7.67493877 22.01293945 7.72436523 C18.47915076 7.7721366 14.94545665 7.82448365 11.41178131 7.87999153 C9.4088233 7.9102625 7.40579565 7.93580571 5.402771 7.96128845 C4.18180725 7.98123367 2.96084351 8.00117889 1.70288086 8.02172852 C0.09071686 8.04504494 0.09071686 8.04504494 -1.55401611 8.0688324 C-3.97934864 8.20603573 -6.03387065 8.53099933 -8.35083008 9.22705078 C-9.46566373 13.71055146 -9.50544826 18.11122545 -9.51196289 22.70166016 C-9.5169278 23.54291946 -9.5218927 24.38417877 -9.52700806 25.25093079 C-9.54157252 28.02422919 -9.54842066 30.79747047 -9.55395508 33.57080078 C-9.55970941 35.50223797 -9.56546711 37.43367514 -9.57122803 39.3651123 C-9.58172046 43.41007757 -9.58757523 47.45502305 -9.59106445 51.5 C-9.59655815 56.68187473 -9.62061224 61.8634879 -9.64903641 67.04528046 C-9.66765807 71.0327023 -9.67286805 75.02006092 -9.67440033 79.00752258 C-9.67742635 80.91809017 -9.68545316 82.82865666 -9.69858551 84.73918152 C-9.71564284 87.41047151 -9.71376706 90.08111903 -9.70727539 92.75244141 C-9.71649017 93.54012405 -9.72570496 94.3278067 -9.73519897 95.13935852 C-9.70080918 99.65751217 -9.25098951 102.68665162 -6.35083008 106.22705078 C-2.57107226 107.48697006 0.95957612 107.3664717 4.89672852 107.35644531 C5.73769577 107.35819763 6.57866302 107.35994995 7.44511414 107.36175537 C10.22929947 107.36616186 13.01342142 107.36323958 15.79760742 107.35986328 C17.7319032 107.36053679 19.6661989 107.36150721 21.60049438 107.36276245 C25.65741785 107.3642379 29.71431932 107.36209023 33.77124023 107.35742188 C38.96876979 107.3517323 44.16624761 107.35499967 49.36377525 107.36099434 C53.35977568 107.36461056 57.35576388 107.36345634 61.35176468 107.36086655 C63.26789989 107.36019982 65.18403622 107.36101682 67.10017014 107.3633461 C69.781084 107.36588915 72.46191459 107.36200832 75.14282227 107.35644531 C76.32905937 107.35948166 76.32905937 107.35948166 77.53926086 107.36257935 C81.36704944 107.34788544 84.92825759 107.15694715 88.64916992 106.22705078 C89.64298472 102.8955129 89.80260142 99.82620231 89.85449219 96.35693359 C89.87443741 95.17601135 89.89438263 93.99508911 89.91493225 92.77838135 C89.93164474 91.50847351 89.94835724 90.23856567 89.96557617 88.93017578 C89.99674782 86.97431549 89.99674782 86.97431549 90.02854919 84.97894287 C90.08362228 81.5200927 90.13309632 78.06118438 90.18139648 74.60223389 C90.23171964 71.0695684 90.28734914 67.5369869 90.3425293 64.00439453 C90.44993013 57.07868615 90.55141489 50.15290184 90.64916992 43.22705078 C92.95916992 43.22705078 95.26916992 43.22705078 97.64916992 43.22705078 C97.71887114 50.92911388 97.77208295 58.63114401 97.80460644 66.33345127 C97.82022107 69.91048435 97.84138152 73.48730064 97.87548828 77.06420898 C97.9082331 80.52015737 97.92605451 83.97589805 97.93380165 87.43198967 C97.94199156 89.38340486 97.9653867 91.33473722 97.98905945 93.286026 C97.99158583 106.67331995 97.99158583 106.67331995 92.6288147 112.37513733 C88.44541973 114.97520747 85.01544012 114.78866507 80.18066406 114.74462891 C79.23372177 114.75163818 78.28677948 114.75864746 77.31114197 114.76586914 C74.18523715 114.78345404 71.06023998 114.77182338 67.93432617 114.75830078 C65.75866014 114.76099577 63.58299528 114.76487825 61.40733337 114.76989746 C56.84858732 114.77579338 52.2901549 114.7672271 47.73144531 114.74853516 C41.89262162 114.72575942 36.05453396 114.7388598 30.21573734 114.76282501 C25.72296116 114.77729182 21.23035891 114.77267264 16.73757744 114.76231384 C14.58502553 114.75964831 12.43245776 114.76291019 10.27992439 114.77223206 C7.26854878 114.78241037 4.25835788 114.76687732 1.24707031 114.74462891 C0.36012482 114.75272583 -0.52682068 114.76082275 -1.44064331 114.76916504 C-6.86384601 114.69507441 -10.1170756 113.94526998 -14.35083008 110.22705078 C-16.05323244 107.42345613 -16.60365629 105.32772525 -16.62498474 102.06594849 C-16.63495987 101.24453369 -16.644935 100.4231189 -16.6552124 99.57681274 C-16.65587708 98.68424774 -16.65654175 97.79168274 -16.65722656 96.87207031 C-16.66555008 95.92527405 -16.6738736 94.97847778 -16.68244934 94.00299072 C-16.70655239 90.87190646 -16.71532164 87.74103049 -16.72192383 84.60986328 C-16.73088952 82.43276914 -16.74001135 80.25567563 -16.74928284 78.07858276 C-16.76577594 73.51396181 -16.77347362 68.94941425 -16.77636719 64.38476562 C-16.78175298 58.53802547 -16.81944039 52.69197555 -16.86511135 46.84543037 C-16.89486399 42.34839361 -16.90209035 37.85152346 -16.90309334 33.35439682 C-16.90729874 31.19902254 -16.91974579 29.0436479 -16.94061089 26.88837051 C-16.96748881 23.87200493 -16.9627102 20.85724479 -16.95019531 17.84082031 C-16.9650296 16.95230377 -16.97986389 16.06378723 -16.99514771 15.14834595 C-16.94618001 11.00041117 -16.70585796 8.10103417 -14.12586975 4.75119019 C-9.53245979 0.5730852 -6.1123806 -0.02449852 0 0 Z " fill="#000000" transform="translate(52.350830078125,49.77294921875)"/>
<path d="M0 0 C15.84 0 31.68 0 48 0 C48 15.84 48 31.68 48 48 C46.02 48 44.04 48 42 48 C41.505 30.675 41.505 30.675 41 13 C37.24109375 16.77630859 37.24109375 16.77630859 33.40625 20.62890625 C30.95764327 23.08532818 28.50816067 25.54087352 26.05859375 27.99633789 C24.36627089 29.69366667 22.6748495 31.39189477 20.984375 33.09106445 C18.54407631 35.54359341 16.10047494 37.99279096 13.65625 40.44140625 C12.91008423 41.19273331 12.16391846 41.94406036 11.3951416 42.71815491 C7.39449688 46.71921923 3.29797073 50.51913864 -0.98669434 54.21253967 C-4.69538905 57.50520645 -8.16267286 61.04085128 -11.65625 64.55859375 C-12.44398804 65.34774673 -13.23172607 66.13689972 -14.04333496 66.94996643 C-16.53127102 69.44345012 -19.01568624 71.94040784 -21.5 74.4375 C-23.1976841 76.14020587 -24.89559858 77.84268207 -26.59375 79.54492188 C-30.7318328 83.69396412 -34.86703935 87.84585576 -39 92 C-40.65 90.68 -42.3 89.36 -44 88 C-42.65323083 84.99976052 -41.16088099 82.91279995 -38.83627319 80.59576416 C-38.185634 79.94237564 -37.53499481 79.28898712 -36.86463928 78.61579895 C-36.15182297 77.91017319 -35.43900665 77.20454742 -34.70458984 76.47753906 C-33.57761436 75.3501255 -33.57761436 75.3501255 -32.4278717 74.19993591 C-29.94360487 71.71706229 -27.45232905 69.2413477 -24.9609375 66.765625 C-23.23700151 65.04541916 -21.51350659 63.3247712 -19.79043579 61.60369873 C-15.25415749 57.07505668 -10.71190506 52.55245285 -6.168396 48.03106689 C-1.53313047 43.41625986 3.09647863 38.79578604 7.7265625 34.17578125 C16.81217354 25.11162001 25.9046186 16.0543572 35 7 C17.675 6.505 17.675 6.505 0 6 C0 4.02 0 2.04 0 0 Z " fill="#000000" transform="translate(116,36)"/>
</svg>
