<?xml version="1.0" encoding="UTF-8"?>
<svg version="1.1" xmlns="http://www.w3.org/2000/svg" width="612" height="612">
<path d="M0 0 C201.96 0 403.92 0 612 0 C612 201.96 612 403.92 612 612 C410.04 612 208.08 612 0 612 C0 410.04 0 208.08 0 0 Z " fill="#FEFEFE" transform="translate(0,0)"/>
<path d="M0 0 C3.79559419 0.03441443 7.58886056 0.0205576 11.38452148 0.0012207 C31.38686151 0.01270006 49.49085768 2.03375479 67.73413086 10.59692383 C68.82983398 11.1099707 69.92553711 11.62301758 71.05444336 12.15161133 C96.96809311 25.2021 115.44917906 48.2490915 124.60913086 75.53442383 C127.48422253 84.45122913 129.08155368 92.59863943 129.04663086 101.97192383 C129.06274414 102.86008789 129.07885742 103.74825195 129.09545898 104.66333008 C129.09610352 105.51540039 129.09674805 106.3674707 129.09741211 107.24536133 C129.10039307 108.01025879 129.10337402 108.77515625 129.10644531 109.56323242 C128.63250152 112.15205325 127.79331681 113.00066969 125.73413086 114.59692383 C123.02255127 115.50078369 121.45877332 115.72419687 118.67484379 115.73114491 C117.43123714 115.73783167 117.43123714 115.73783167 116.16250712 115.74465352 C115.25181937 115.74446916 114.34113163 115.7442848 113.40284729 115.74409485 C111.95153291 115.74960988 111.95153291 115.74960988 110.47089905 115.75523633 C107.21431801 115.76628891 103.95776887 115.77011963 100.70117188 115.77392578 C98.37227273 115.78018907 96.04337458 115.78683575 93.71447754 115.7938385 C87.37781532 115.81125678 81.04116064 115.82180181 74.70448041 115.83004403 C70.7490248 115.83519078 66.79357155 115.84126656 62.8381176 115.84755516 C51.88944701 115.86442314 40.9407785 115.87905967 29.9920969 115.8863039 C27.15146954 115.88821382 24.31084218 115.89013415 21.47021484 115.89208984 C20.76418489 115.89257358 20.05815493 115.89305732 19.33073013 115.89355572 C7.88458807 115.90186228 -3.56144969 115.92721129 -15.00754618 115.95967052 C-26.7552715 115.99271407 -38.50294374 116.01075007 -50.25071579 116.01394814 C-56.84828381 116.01630417 -63.44568686 116.02533678 -70.04321098 116.05040932 C-76.24594701 116.07360117 -82.44840839 116.07795912 -88.65117645 116.06764793 C-90.93127668 116.06715035 -93.21139004 116.07353584 -95.49144936 116.08720398 C-98.59716741 116.10478444 -101.70188485 116.09788499 -104.80760193 116.08467102 C-105.71605895 116.09564027 -106.62451597 116.10660951 -107.56050199 116.11791116 C-113.61205037 116.05547397 -113.61205037 116.05547397 -116.82161045 113.80447674 C-119.03424449 110.42246025 -118.90198237 107.06848511 -118.82836914 103.15942383 C-118.81668701 102.32540039 -118.80500488 101.49137695 -118.79296875 100.63208008 C-118.02440362 78.11542544 -108.98754776 55.6562603 -94.26586914 38.59692383 C-93.60586914 38.59692383 -92.94586914 38.59692383 -92.26586914 38.59692383 C-92.01836914 38.02973633 -91.77086914 37.46254883 -91.51586914 36.87817383 C-82.46407894 20.35865671 -59.19717219 9.45015687 -41.89428711 4.22387695 C-27.93443422 0.36038575 -14.42652962 -0.14444235 0 0 Z " fill="#171717" transform="translate(299.265869140625,297.403076171875)"/>
<path d="M0 0 C0.99 0.35191406 1.98 0.70382813 3 1.06640625 C21.80663886 8.33478836 35.9590277 21.71788968 44.375 39.984375 C50.66673704 56.36139641 52.13783768 76.73924552 45 93 C44.50242187 94.15757812 44.00484375 95.31515625 43.4921875 96.5078125 C35.15018837 114.47221062 21.51174329 127.92779835 2.875 134.75 C-16.70952116 141.53447615 -35.51475238 140.38774338 -54.25 131.4375 C-62.02100728 127.47946696 -68.04464096 122.31196736 -74 116 C-74.73734375 115.23171875 -75.4746875 114.4634375 -76.234375 113.671875 C-80.56091852 108.74162774 -83.54260776 103.37187582 -86.375 97.5 C-86.70918945 96.81212402 -87.04337891 96.12424805 -87.38769531 95.41552734 C-93.78574786 81.43667207 -94.76245778 61.52920599 -90.15625 46.87890625 C-85.23984133 34.63771303 -79.53601403 25.1666132 -70 16 C-69.23558594 15.23945313 -68.47117187 14.47890625 -67.68359375 13.6953125 C-50.19650669 -2.88457327 -22.64459201 -8.19549914 0 0 Z " fill="#161616" transform="translate(326,150)"/>
<path d="M0 0 C1.31611677 0.95336021 2.62778961 1.91285774 3.9375 2.875 C4.66839844 3.40867187 5.39929688 3.94234375 6.15234375 4.4921875 C8 6 8 6 9 8 C5.625 8.125 5.625 8.125 2 8 C1.34 7.34 0.68 6.68 0 6 C0.66 6 1.32 6 2 6 C2 5.34 2 4.68 2 4 C1.01 4 0.02 4 -1 4 C-0.67 2.68 -0.34 1.36 0 0 Z " fill="#262626" transform="translate(386,320)"/>
<path d="M0 0 C-1.5 3 -1.5 3 -3 6 C-5.64 5.67 -8.28 5.34 -11 5 C-7.56138316 1.21752148 -5.17193751 0 0 0 Z " fill="#303030" transform="translate(280,152)"/>
<path d="M0 0 C0.66 0 1.32 0 2 0 C3.06351675 3.38391693 3.21442982 4.5804634 1.5625 7.8125 C1.046875 8.534375 0.53125 9.25625 0 10 C-0.66 9.67 -1.32 9.34 -2 9 C-1.41196203 5.97580475 -0.77321882 2.98241547 0 0 Z " fill="#1E1E1E" transform="translate(363,248)"/>
<path d="M0 0 C0.66 0 1.32 0 2 0 C3.6875 1.8125 3.6875 1.8125 5 4 C4.67 4.99 4.34 5.98 4 7 C2.02 5.35 0.04 3.7 -2 2 C-1.34 1.34 -0.68 0.68 0 0 Z " fill="#242424" transform="translate(252,262)"/>
<path d="M0 0 C0 0.66 0 1.32 0 2 C-3.63 1.67 -7.26 1.34 -11 1 C-6.46638825 -2.02240784 -4.84891921 -2.2278818 0 0 Z " fill="#1E1E1E" transform="translate(369,309)"/>
<path d="M0 0 C1.0625 1.8125 1.0625 1.8125 2 4 C1.67 4.99 1.34 5.98 1 7 C-0.32 7 -1.64 7 -3 7 C-1.125 1.125 -1.125 1.125 0 0 Z " fill="#292929" transform="translate(244,180)"/>
<path d="M0 0 C0.33 0 0.66 0 1 0 C2.10228696 4.40914783 2.07654536 8.48382401 2 13 C1.87625 12.360625 1.7525 11.72125 1.625 11.0625 C1.41875 10.381875 1.2125 9.70125 1 9 C0.34 8.67 -0.32 8.34 -1 8 C-0.67 5.36 -0.34 2.72 0 0 Z " fill="#484848" transform="translate(426,384)"/>
<path d="M0 0 C2.0625 1.75 2.0625 1.75 4 4 C3.75 6.25 3.75 6.25 3 8 C1.68 6.68 0.36 5.36 -1 4 C-0.34 4 0.32 4 1 4 C1 3.34 1 2.68 1 2 C0.34 1.67 -0.32 1.34 -1 1 C-0.67 0.67 -0.34 0.34 0 0 Z " fill="#282828" transform="translate(259,267)"/>
<path d="M0 0 C0.66 0 1.32 0 2 0 C1.67 1.98 1.34 3.96 1 6 C-0.65 5.67 -2.3 5.34 -4 5 C-2.71937515 3.2925002 -1.38232443 1.62626404 0 0 Z " fill="#222222" transform="translate(252,170)"/>
</svg>
