<?xml version="1.0" encoding="UTF-8"?>
<svg version="1.1" xmlns="http://www.w3.org/2000/svg" width="612" height="612">
<path d="M0 0 C201.96 0 403.92 0 612 0 C612 201.96 612 403.92 612 612 C410.04 612 208.08 612 0 612 C0 410.04 0 208.08 0 0 Z " fill="#FEFEFE" transform="translate(0,0)"/>
<path d="M0 0 C30.36 0 60.72 0 92 0 C92 30.36 92 60.72 92 92 C61.64 92 31.28 92 0 92 C0 61.64 0 31.28 0 0 Z " fill="#3F3F3D" transform="translate(199,321)"/>
<path d="M0 0 C30.36 0 60.72 0 92 0 C92 30.36 92 60.72 92 92 C61.64 92 31.28 92 0 92 C0 61.64 0 31.28 0 0 Z " fill="#3F3F3D" transform="translate(199,199)"/>
<path d="M0 0 C30.36 0 60.72 0 92 0 C92 30.36 92 60.72 92 92 C61.64 92 31.28 92 0 92 C0 61.64 0 31.28 0 0 Z " fill="#3F3F3D" transform="translate(321,199)"/>
<path d="M0 0 C9.9 0 19.8 0 30 0 C30 30.03 30 60.06 30 91 C-0.36 91 -30.72 91 -62 91 C-62 81.1 -62 71.2 -62 61 C-41.54 61 -21.08 61 0 61 C0 40.87 0 20.74 0 0 Z " fill="#3D3D3B" transform="translate(444,383)"/>
<path d="M0 0 C9.9 0 19.8 0 30 0 C30 20.13 30 40.26 30 61 C50.46 61 70.92 61 92 61 C92 70.9 92 80.8 92 91 C61.64 91 31.28 91 0 91 C0 60.97 0 30.94 0 0 Z " fill="#3D3D3B" transform="translate(138,383)"/>
<path d="M0 0 C30.03 0 60.06 0 91 0 C91 30.03 91 60.06 91 91 C81.1 91 71.2 91 61 91 C61 70.87 61 50.74 61 30 C40.87 30 20.74 30 0 30 C0 20.1 0 10.2 0 0 Z " fill="#3C3C3B" transform="translate(383,138)"/>
<path d="M0 0 C30.03 0 60.06 0 91 0 C91 9.9 91 19.8 91 30 C70.87 30 50.74 30 30 30 C30 50.13 30 70.26 30 91 C20.1 91 10.2 91 0 91 C0 60.97 0 30.94 0 0 Z " fill="#3C3C3B" transform="translate(138,138)"/>
<path d="M0 0 C20.13 0 40.26 0 61 0 C61 20.13 61 40.26 61 61 C50.77 61 40.54 61 30 61 C30 51.1 30 41.2 30 31 C20.1 31 10.2 31 0 31 C0 40.9 0 50.8 0 61 C-10.23 61 -20.46 61 -31 61 C-31 50.77 -31 40.54 -31 30 C-20.77 30 -10.54 30 0 30 C0 20.1 0 10.2 0 0 Z " fill="#3C3C3B" transform="translate(352,352)"/>
<path d="M0 0 C20.46 0 40.92 0 62 0 C62 10.23 62 20.46 62 31 C61.67 31 61.34 31 61 31 C61 21.1 61 11.2 61 1 C51.1 1 41.2 1 31 1 C31 10.9 31 20.8 31 31 C20.77 31 10.54 31 0 31 C0 20.77 0 10.54 0 0 Z " fill="#474746" transform="translate(321,382)"/>
<path d="M0 0 C10.23 0 20.46 0 31 0 C31 10.23 31 20.46 31 31 C20.77 31 10.54 31 0 31 C0 20.77 0 10.54 0 0 Z " fill="#41413F" transform="translate(321,321)"/>
<path d="M0 0 C9.9 0 19.8 0 30 0 C30 9.9 30 19.8 30 30 C20.1 30 10.2 30 0 30 C0 20.1 0 10.2 0 0 Z " fill="#FEFEFE" transform="translate(230,352)"/>
<path d="M0 0 C9.9 0 19.8 0 30 0 C30 9.9 30 19.8 30 30 C20.1 30 10.2 30 0 30 C0 20.1 0 10.2 0 0 Z " fill="#FEFEFE" transform="translate(352,230)"/>
<path d="M0 0 C9.9 0 19.8 0 30 0 C30 9.9 30 19.8 30 30 C20.1 30 10.2 30 0 30 C0 20.1 0 10.2 0 0 Z " fill="#FEFEFE" transform="translate(230,230)"/>
</svg>
