<?xml version="1.0" encoding="UTF-8"?>
<svg version="1.1" xmlns="http://www.w3.org/2000/svg" width="512" height="512">
<path d="M0 0 C2.40430582 0.01608557 4.80692596 0.00003648 7.21118164 -0.01904297 C21.99421487 -0.04096606 36.41552674 1.75310982 50.40844727 6.70361328 C51.29395264 7.00992676 52.17945801 7.31624023 53.09179688 7.63183594 C77.47382465 16.29850793 95.64965052 33.87881954 106.78344727 56.95361328 C113.27678945 71.77498159 115.84525648 86.42380884 115.84155273 102.51660156 C115.84591464 104.62534177 115.8823499 106.7319607 115.92016602 108.84033203 C116.19851807 142.79928241 96.21863774 167.22227404 73.60668945 190.29321289 C70.13116927 193.79313723 66.56185714 197.09548187 62.83032227 200.32080078 C58.15627527 204.42219963 53.59675555 208.64774511 49.06079102 212.90087891 C47.59781124 214.27219778 46.12842605 215.63667463 44.65844727 217.00048828 C28.13343638 232.82016333 26.19498327 249.11588828 22.47094727 272.39111328 C3.99094727 272.39111328 -14.48905273 272.39111328 -33.52905273 272.39111328 C-30.36069838 232.78668385 -22.34600244 208.68304821 5.39160156 181.26464844 C7.04044297 179.6341956 8.68100828 177.99574948 10.32055664 176.35595703 C15.3092676 171.38416221 20.34236339 166.51038399 25.69384766 161.92578125 C40.60078173 149.0524487 53.06092331 134.5520482 55.34594727 114.26611328 C56.21122773 96.22501558 52.53081581 79.63144594 40.88500977 65.46142578 C33.40829386 57.28267083 22.4234855 53.16671329 11.52709961 52.10400391 C8.52262708 51.99094569 5.53968579 51.97394836 2.53344727 52.01611328 C0.94922974 52.03242798 0.94922974 52.03242798 -0.66699219 52.04907227 C-15.73426015 52.35766072 -28.48170579 56.49515373 -39.84155273 66.82861328 C-43.63680872 70.90157093 -46.37254644 75.1607874 -48.90405273 80.07861328 C-49.21383057 80.67665771 -49.5236084 81.27470215 -49.84277344 81.89086914 C-53.174306 88.89751273 -54.45940726 95.62994276 -56.52905273 103.39111328 C-75.99905273 103.39111328 -95.46905273 103.39111328 -115.52905273 103.39111328 C-115.52905273 90.34326499 -115.52905273 90.34326499 -114.40405273 84.20361328 C-114.27281006 83.48657227 -114.14156738 82.76953125 -114.00634766 82.03076172 C-110.42889364 63.99138563 -101.64886968 49.13431855 -89.52905273 35.39111328 C-89.00182617 34.78009766 -88.47459961 34.16908203 -87.93139648 33.53955078 C-75.78537197 20.43054222 -59.26809332 11.85217174 -42.59155273 6.07861328 C-41.93759521 5.84811279 -41.2836377 5.6176123 -40.60986328 5.38012695 C-27.36130801 1.07462319 -13.84053651 -0.10954458 0 0 Z " fill="#000000" transform="translate(255.529052734375,52.60888671875)"/>
<path d="M0 0 C10.52914671 6.87778342 18.70485289 16.89592053 21.36328125 29.45703125 C22.72179329 44.98903994 20.60107402 57.25277135 10.36328125 69.45703125 C3.55769034 76.79008762 -5.44209896 82.74028624 -15.66040039 83.6340332 C-30.13594095 84.04922697 -40.89618882 82.63071529 -52.63671875 73.45703125 C-53.25289062 72.97878906 -53.8690625 72.50054687 -54.50390625 72.0078125 C-61.19975691 66.10058425 -67.02514933 55.44916771 -67.8137207 46.43334961 C-68.25488116 31.05249252 -66.51752127 19.06171628 -55.671875 7.33203125 C-40.59318037 -7.06498641 -18.18804614 -10.64337515 0 0 Z " fill="#000000" transform="translate(273.63671875,375.54296875)"/>
</svg>
