<?xml version="1.0" encoding="UTF-8"?>
<svg version="1.1" xmlns="http://www.w3.org/2000/svg" width="225" height="225">
<path d="M0 0 C74.25 0 148.5 0 225 0 C225 74.25 225 148.5 225 225 C150.75 225 76.5 225 0 225 C0 150.75 0 76.5 0 0 Z " fill="#FEFEFE" transform="translate(0,0)"/>
<path d="M0 0 C1.72379883 -0.02416992 1.72379883 -0.02416992 3.48242188 -0.04882812 C4.58263672 -0.04947266 5.68285156 -0.05011719 6.81640625 -0.05078125 C7.8226001 -0.05376221 8.82879395 -0.05674316 9.86547852 -0.05981445 C12.4375 0.3125 12.4375 0.3125 14.26342773 1.61621094 C16.49709374 4.84339152 15.91463501 9.13889371 15.96484375 12.95117188 C16.0246705 14.74421491 16.22285341 16.53134604 16.4375 18.3125 C19.11660416 20.53463646 19.11660416 20.53463646 21.4453125 20.19140625 C24.05370596 19.04064443 24.8142759 17.64969793 26.3125 15.25 C29.08277458 11.42536718 29.08277458 11.42536718 32.1875 10.4375 C37.20692081 11.78888253 41.18249493 14.37963373 45.4375 17.3125 C46.15164062 17.80363281 46.86578125 18.29476562 47.6015625 18.80078125 C50.73975379 21.19639641 52.25324783 22.87699487 53.8125 26.5625 C53.31751948 31.51230516 51.12703843 34.01417278 48.00390625 37.78515625 C45.51685621 41.79792776 46.17870949 45.08912668 47.125 49.5625 C50.0447119 53.03458983 51.46526053 52.87392343 55.875 53.4375 C57.00808594 53.52257812 58.14117187 53.60765625 59.30859375 53.6953125 C63.05051076 54.43341848 64.23378552 55.22626754 66.4375 58.3125 C68.31381795 65.0035206 68.95099241 72.38035249 68.4375 79.3125 C66.4375 82.3125 66.4375 82.3125 63.4375 83.3125 C62.10224283 83.39223476 60.76337917 83.42021338 59.42578125 83.41015625 C58.28979492 83.40532227 58.28979492 83.40532227 57.13085938 83.40039062 C55.95233398 83.38782227 55.95233398 83.38782227 54.75 83.375 C53.95271484 83.37048828 53.15542969 83.36597656 52.33398438 83.36132812 C50.36845743 83.3495585 48.40296915 83.33162348 46.4375 83.3125 C46.1075 85.6225 45.7775 87.9325 45.4375 90.3125 C46.17806641 90.73208984 46.17806641 90.73208984 46.93359375 91.16015625 C50.48193079 93.38054422 52.1761295 94.58341386 53.625 98.625 C53.28966567 105.21990846 49.92980223 110.5559447 45.4375 115.3125 C42.1488623 118.08957183 40.39375179 119.27708327 36.0625 119.4375 C31.92628421 118.15384683 29.58239081 116.29214031 26.4296875 113.39453125 C25.44355469 112.85892578 25.44355469 112.85892578 24.4375 112.3125 C21.71227348 113.03841946 21.71227348 113.03841946 19.4375 114.3125 C19.42332031 115.28832031 19.40914063 116.26414062 19.39453125 117.26953125 C19.34683594 118.54183594 19.29914063 119.81414062 19.25 121.125 C19.21519531 122.38957031 19.18039063 123.65414062 19.14453125 124.95703125 C18.4375 128.3125 18.4375 128.3125 16.5859375 130.24609375 C11.81627118 131.86162589 7.2471531 131.66573363 2.25 131.5625 C1.24001953 131.55734375 0.23003906 131.5521875 -0.81054688 131.546875 C-8.25305451 131.46722274 -8.25305451 131.46722274 -10.5625 130.3125 C-10.58951408 128.20840361 -10.60890223 126.10420822 -10.625 124 C-10.63660156 122.82824219 -10.64820313 121.65648437 -10.66015625 120.44921875 C-10.5625 117.3125 -10.5625 117.3125 -9.5625 114.3125 C-11.8725 113.9825 -14.1825 113.6525 -16.5625 113.3125 C-16.98660156 113.95058594 -17.41070312 114.58867187 -17.84765625 115.24609375 C-22.56071939 121.88581567 -22.56071939 121.88581567 -26.9375 123.75 C-35.03613436 122.77257861 -41.06571819 116.58133856 -46.1484375 110.546875 C-47.5625 108.3125 -47.5625 108.3125 -47.8125 104.625 C-46.5625 101.3125 -46.5625 101.3125 -44.375 98.1875 C-42.22196153 95.50036226 -42.22196153 95.50036226 -43.0625 92.75 C-43.5575 91.945625 -44.0525 91.14125 -44.5625 90.3125 C-45.2740625 88.95125 -45.2740625 88.95125 -46 87.5625 C-49.49907798 84.49013884 -52.36090739 84.6694097 -56.90625 84.55078125 C-59.73226971 84.29727066 -61.26892304 83.97735521 -63.5625 82.3125 C-66.36389099 77.75354841 -65.93002753 72.43215576 -65.9375 67.25 C-65.97423828 65.90325195 -65.97423828 65.90325195 -66.01171875 64.52929688 C-66.04071756 58.02872952 -66.04071756 58.02872952 -63.859375 54.76171875 C-61.30166838 53.14792767 -59.42239888 52.60627686 -56.4375 52.1875 C-52.5493939 51.71628731 -52.5493939 51.71628731 -49.5625 49.3125 C-49.50404191 46.84599802 -49.50404191 46.84599802 -50.5625 44.3125 C-51.3875 43.673125 -52.2125 43.03375 -53.0625 42.375 C-55.5625 40.3125 -55.5625 40.3125 -56.3828125 37.53125 C-56.7199246 31.49254634 -52.87899866 26.11734162 -49.1171875 21.5625 C-47.98533044 20.42386536 -46.77908814 19.36011756 -45.5625 18.3125 C-44.9025 17.6525 -44.2425 16.9925 -43.5625 16.3125 C-39.10627997 16.39987686 -36.38023071 17.2330354 -32.9375 19.9375 C-30.29892177 21.99378261 -30.29892177 21.99378261 -27 22.4375 C-23.56865934 20.85380431 -21.30789233 18.93310177 -18.5625 16.3125 C-17.28270538 12.47311613 -17.29180299 8.83543627 -17.13671875 4.80859375 C-16.5625 2.3125 -16.5625 2.3125 -14.88623047 1.17529297 C-10.16354379 -0.57822402 -4.97785346 -0.01400634 0 0 Z " fill="#F8F8F8" transform="translate(110.5625,47.6875)"/>
<path d="M0 0 C1.72379883 -0.02416992 1.72379883 -0.02416992 3.48242188 -0.04882812 C4.58263672 -0.04947266 5.68285156 -0.05011719 6.81640625 -0.05078125 C7.8226001 -0.05376221 8.82879395 -0.05674316 9.86547852 -0.05981445 C12.4375 0.3125 12.4375 0.3125 14.26342773 1.61621094 C16.49709374 4.84339152 15.91463501 9.13889371 15.96484375 12.95117188 C16.0246705 14.74421491 16.22285341 16.53134604 16.4375 18.3125 C19.11660416 20.53463646 19.11660416 20.53463646 21.4453125 20.19140625 C24.05370596 19.04064443 24.8142759 17.64969793 26.3125 15.25 C29.08277458 11.42536718 29.08277458 11.42536718 32.1875 10.4375 C37.20692081 11.78888253 41.18249493 14.37963373 45.4375 17.3125 C46.15164062 17.80363281 46.86578125 18.29476562 47.6015625 18.80078125 C50.73975379 21.19639641 52.25324783 22.87699487 53.8125 26.5625 C53.31751948 31.51230516 51.12703843 34.01417278 48.00390625 37.78515625 C45.51685621 41.79792776 46.17870949 45.08912668 47.125 49.5625 C50.0447119 53.03458983 51.46526053 52.87392343 55.875 53.4375 C57.00808594 53.52257812 58.14117187 53.60765625 59.30859375 53.6953125 C63.05051076 54.43341848 64.23378552 55.22626754 66.4375 58.3125 C68.31381795 65.0035206 68.95099241 72.38035249 68.4375 79.3125 C66.4375 82.3125 66.4375 82.3125 63.4375 83.3125 C62.10224283 83.39223476 60.76337917 83.42021338 59.42578125 83.41015625 C58.28979492 83.40532227 58.28979492 83.40532227 57.13085938 83.40039062 C55.95233398 83.38782227 55.95233398 83.38782227 54.75 83.375 C53.95271484 83.37048828 53.15542969 83.36597656 52.33398438 83.36132812 C50.36845743 83.3495585 48.40296915 83.33162348 46.4375 83.3125 C46.1075 85.6225 45.7775 87.9325 45.4375 90.3125 C46.17806641 90.73208984 46.17806641 90.73208984 46.93359375 91.16015625 C50.48193079 93.38054422 52.1761295 94.58341386 53.625 98.625 C53.28966567 105.21990846 49.92980223 110.5559447 45.4375 115.3125 C42.1488623 118.08957183 40.39375179 119.27708327 36.0625 119.4375 C31.92628421 118.15384683 29.58239081 116.29214031 26.4296875 113.39453125 C25.44355469 112.85892578 25.44355469 112.85892578 24.4375 112.3125 C21.71227348 113.03841946 21.71227348 113.03841946 19.4375 114.3125 C19.42332031 115.28832031 19.40914063 116.26414062 19.39453125 117.26953125 C19.34683594 118.54183594 19.29914063 119.81414062 19.25 121.125 C19.21519531 122.38957031 19.18039063 123.65414062 19.14453125 124.95703125 C18.4375 128.3125 18.4375 128.3125 16.5859375 130.24609375 C11.81627118 131.86162589 7.2471531 131.66573363 2.25 131.5625 C1.24001953 131.55734375 0.23003906 131.5521875 -0.81054688 131.546875 C-8.25305451 131.46722274 -8.25305451 131.46722274 -10.5625 130.3125 C-10.58951408 128.20840361 -10.60890223 126.10420822 -10.625 124 C-10.63660156 122.82824219 -10.64820313 121.65648437 -10.66015625 120.44921875 C-10.5625 117.3125 -10.5625 117.3125 -9.5625 114.3125 C-11.8725 113.9825 -14.1825 113.6525 -16.5625 113.3125 C-16.98660156 113.95058594 -17.41070312 114.58867187 -17.84765625 115.24609375 C-22.56071939 121.88581567 -22.56071939 121.88581567 -26.9375 123.75 C-35.03613436 122.77257861 -41.06571819 116.58133856 -46.1484375 110.546875 C-47.5625 108.3125 -47.5625 108.3125 -47.8125 104.625 C-46.5625 101.3125 -46.5625 101.3125 -44.375 98.1875 C-42.22196153 95.50036226 -42.22196153 95.50036226 -43.0625 92.75 C-43.5575 91.945625 -44.0525 91.14125 -44.5625 90.3125 C-45.2740625 88.95125 -45.2740625 88.95125 -46 87.5625 C-49.49907798 84.49013884 -52.36090739 84.6694097 -56.90625 84.55078125 C-59.73226971 84.29727066 -61.26892304 83.97735521 -63.5625 82.3125 C-66.36389099 77.75354841 -65.93002753 72.43215576 -65.9375 67.25 C-65.97423828 65.90325195 -65.97423828 65.90325195 -66.01171875 64.52929688 C-66.04071756 58.02872952 -66.04071756 58.02872952 -63.859375 54.76171875 C-61.30166838 53.14792767 -59.42239888 52.60627686 -56.4375 52.1875 C-52.5493939 51.71628731 -52.5493939 51.71628731 -49.5625 49.3125 C-49.50404191 46.84599802 -49.50404191 46.84599802 -50.5625 44.3125 C-51.3875 43.673125 -52.2125 43.03375 -53.0625 42.375 C-55.5625 40.3125 -55.5625 40.3125 -56.3828125 37.53125 C-56.7199246 31.49254634 -52.87899866 26.11734162 -49.1171875 21.5625 C-47.98533044 20.42386536 -46.77908814 19.36011756 -45.5625 18.3125 C-44.9025 17.6525 -44.2425 16.9925 -43.5625 16.3125 C-39.10627997 16.39987686 -36.38023071 17.2330354 -32.9375 19.9375 C-30.29892177 21.99378261 -30.29892177 21.99378261 -27 22.4375 C-23.56865934 20.85380431 -21.30789233 18.93310177 -18.5625 16.3125 C-17.28270538 12.47311613 -17.29180299 8.83543627 -17.13671875 4.80859375 C-16.5625 2.3125 -16.5625 2.3125 -14.88623047 1.17529297 C-10.16354379 -0.57822402 -4.97785346 -0.01400634 0 0 Z M-9.48046875 8.55859375 C-10.81860488 10.7276303 -10.89422713 12.15170985 -10.9375 14.6875 C-11.23738736 18.06259598 -11.45113101 19.15802043 -13.5 22 C-25.5994758 31.13633887 -25.5994758 31.13633887 -31.5625 30.3125 C-32.5525 29.466875 -33.5425 28.62125 -34.5625 27.75 C-37.25233395 25.08947789 -37.25233395 25.08947789 -40.125 25.125 C-43.67280586 26.85341824 -45.37553649 29.06329707 -47.5625 32.3125 C-48.47941437 34.85709933 -48.47941437 34.85709933 -47.5625 37.3125 C-46.5725 38.09625 -45.5825 38.88 -44.5625 39.6875 C-41.5625 42.3125 -41.5625 42.3125 -40.9375 45.5625 C-41.71023645 50.19891868 -43.17604308 54.25378129 -45.5625 58.3125 C-48.43150055 59.74700027 -51.29722913 59.69161083 -54.46875 59.93359375 C-56.77561098 60.14568777 -56.77561098 60.14568777 -58.5625 62.3125 C-58.84440557 65.40572457 -58.84440557 65.40572457 -58.75 68.875 C-58.74355469 70.05191406 -58.73710938 71.22882813 -58.73046875 72.44140625 C-58.88767435 75.20885973 -58.88767435 75.20885973 -57.5625 76.3125 C-55.83526658 76.44491142 -54.10537222 76.54326852 -52.375 76.625 C-47.31984628 77.08218444 -44.34548998 77.70546304 -40.5625 81.3125 C-37.14834633 85.67674621 -33.96152634 89.93660134 -34.5 95.6875 C-35.49182679 99.07137965 -36.49998102 100.59372497 -38.5625 103.3125 C-38.720908 106.32225198 -38.05420672 107.75788563 -36.06640625 110 C-33.49209433 112.39851852 -33.49209433 112.39851852 -30.5625 114.3125 C-27.86352448 114.16169019 -26.84141601 113.58942375 -24.921875 111.68359375 C-24.39078125 111.04550781 -23.8596875 110.40742188 -23.3125 109.75 C-20.78338081 107.11820289 -19.26745265 105.79520211 -15.5625 105.6875 C-11.46434055 106.07095352 -8.18379754 107.39099518 -4.5625 109.3125 C-3.12571166 112.18607668 -3.50636536 114.67883421 -3.5625 117.875 C-3.60009919 120.0205039 -3.60920095 122.16717492 -3.5625 124.3125 C-1.99222683 125.88277317 -0.41980053 125.48224386 1.75 125.5 C2.52988281 125.51417969 3.30976562 125.52835937 4.11328125 125.54296875 C6.82017043 125.27455453 8.28354516 125.00421232 10.4375 123.3125 C11.17616133 120.03054368 11.38382824 116.82733351 11.65234375 113.4765625 C12.64217047 109.48770857 14.02905886 108.49289985 17.4375 106.3125 C23.33405172 103.3125 23.33405172 103.3125 26.5 103.3125 C28.4375 104.3125 28.4375 104.3125 31.3125 106.875 C34.21289146 109.49856571 34.21289146 109.49856571 37.5625 110 C40.69463617 109.53679655 40.69463617 109.53679655 42.875 106.625 C44.60043522 103.51671308 44.60043522 103.51671308 44.5625 100.625 C42.95579972 97.32233831 40.73779643 96.72691275 37.4375 95.3125 C36.7775 94.6525 36.1175 93.9925 35.4375 93.3125 C35.73325347 87.10167717 38.30451074 81.51904061 42.58984375 77.0859375 C46.19791711 74.83893434 49.14553869 74.85825886 53.25 75.0625 C53.94287109 75.08054687 54.63574219 75.09859375 55.34960938 75.1171875 C57.04617664 75.16398936 58.74202476 75.23572376 60.4375 75.3125 C60.7527595 69.32256953 60.11969822 65.67689644 57.4375 60.3125 C56.31601563 60.27382812 56.31601563 60.27382812 55.171875 60.234375 C54.18703125 60.17765625 53.2021875 60.1209375 52.1875 60.0625 C51.21296875 60.01609375 50.2384375 59.9696875 49.234375 59.921875 C45.6795247 59.14735454 44.61501175 58.215849 42.4375 55.3125 C41.35124777 52.78815035 40.44634396 50.41552856 39.625 47.8125 C39.28178711 46.81669922 39.28178711 46.81669922 38.93164062 45.80078125 C36.88164988 39.51915823 36.88164988 39.51915823 38.4375 36.3125 C39.8828125 34.78515625 39.8828125 34.78515625 41.5625 33.375 C44.02817442 31.0656505 44.02817442 31.0656505 44.75 27.8125 C42.76282298 24.02740091 40.0703593 21.54333897 36.4375 19.3125 C33.78942865 18.65789132 33.78942865 18.65789132 31.4375 20.3125 C30.42291203 21.64033507 29.44724013 22.99831163 28.5 24.375 C25.77983968 28.21360187 25.77983968 28.21360187 22.625 29.125 C18.12698924 27.97844824 14.2473213 25.95932322 10.4375 23.3125 C8.70798422 19.85346843 9.03214237 15.88148838 8.81640625 12.0625 C8.70030834 9.17265992 8.70030834 9.17265992 6.4375 7.3125 C3.18492036 6.95343106 3.18492036 6.95343106 -0.5 7 C-1.74652344 6.98324219 -2.99304688 6.96648438 -4.27734375 6.94921875 C-7.47946041 7.05428396 -7.47946041 7.05428396 -9.48046875 8.55859375 Z " fill="#0A0A0A" transform="translate(110.5625,47.6875)"/>
<path d="M0 0 C5.58573686 3.76815582 8.91793917 8.94782464 10.96875 15.328125 C11.76378351 21.46124068 9.99807445 26.08847913 6.96875 31.328125 C2.44737867 36.68238052 -2.95656481 40.91437162 -10.0703125 41.63671875 C-17.20963481 41.89336106 -22.47276788 41.78200624 -28.1875 37.21875 C-32.94002061 32.3454026 -35.29159428 27.68227848 -35.53125 20.828125 C-35.15734748 13.4123916 -33.39603801 6.69291301 -28.03125 1.328125 C-19.89279512 -4.36879342 -8.76948747 -4.51183776 0 0 Z " fill="#090909" transform="translate(122.03125,93.671875)"/>
<path d="M0 0 C3.62939999 2.40686526 6.3513905 4.85985905 7.98046875 8.98046875 C8.59594946 13.75044424 8.55927619 16.66825995 5.91796875 20.73046875 C2.5737455 24.82409777 -0.99009793 27.5224101 -6.29296875 28.32421875 C-11.00368735 28.51202148 -14.28291892 28.07651897 -18.01953125 24.98046875 C-22.03224605 20.52189675 -23.41195959 17.18328841 -23.2890625 11.10546875 C-22.7197862 6.61726138 -20.84074174 3.4111262 -17.2890625 0.62109375 C-11.57873188 -2.70708298 -5.94531214 -3.00140516 0 0 Z " fill="#C6C6C6" transform="translate(117.01953125,100.01953125)"/>
<path d="M0 0 C0.33 0 0.66 0 1 0 C1.29915966 8.97478992 1.29915966 8.97478992 -1 12 C-3.88211302 12.96070434 -5.69850044 13.10581883 -8.6875 13.0625 C-9.89986328 13.04896484 -9.89986328 13.04896484 -11.13671875 13.03515625 C-12.05904297 13.01775391 -12.05904297 13.01775391 -13 13 C-13.33 11.68 -13.66 10.36 -14 9 C-13.32453125 8.68546875 -12.6490625 8.3709375 -11.953125 8.046875 C-5.35613599 4.90117046 -5.35613599 4.90117046 0 0 Z " fill="#C5C5C5" transform="translate(121,160)"/>
<path d="M0 0 C2.26562673 2.26562673 2.94462749 3.84160705 3.09765625 7.04296875 C3.06510417 9.02864583 3.03255208 11.01432292 3 13 C1.39592672 13.02708567 -0.2082785 13.04643483 -1.8125 13.0625 C-3.15248047 13.07990234 -3.15248047 13.07990234 -4.51953125 13.09765625 C-7 13 -7 13 -10 12 C-10 11.34 -10 10.68 -10 10 C-9.05125 9.71125 -8.1025 9.4225 -7.125 9.125 C-3.94788422 8.23174891 -3.94788422 8.23174891 -2 6 C-1.28591666 4.01643517 -0.61382258 2.01684563 0 0 Z " fill="#C6C6C6" transform="translate(168,110)"/>
<path d="M0 0 C2.475 0.99 2.475 0.99 5 2 C4.53256152 6.11345859 4.11081018 9.11139055 1 12 C-1.6875 12.25 -1.6875 12.25 -4 12 C-2.66666667 8 -1.33333333 4 0 0 Z " fill="#C7C7C7" transform="translate(150,145)"/>
<path d="M0 0 C0.99 0.66 1.98 1.32 3 2 C2.848048 7.01441603 0.07298671 9.33354746 -3.30859375 12.64453125 C-5 14 -5 14 -7 14 C-6.44010697 10.00987629 -5.24330232 7.4744948 -2.9375 4.1875 C-2.38964844 3.39730469 -1.84179688 2.60710937 -1.27734375 1.79296875 C-0.64505859 0.90544922 -0.64505859 0.90544922 0 0 Z " fill="#C4C4C4" transform="translate(152,72)"/>
<path d="M0 0 C0.33 0 0.66 0 1 0 C1 2.64 1 5.28 1 8 C0.01 8.495 0.01 8.495 -1 9 C-1.625 5.625 -1.625 5.625 -2 2 C-1.34 1.34 -0.68 0.68 0 0 Z " fill="#B2B2B2" transform="translate(121,160)"/>
</svg>
